<?xml version="1.0" standalone="no"?>
<!DOCTYPE svg PUBLIC "-//W3C//DTD SVG 1.1//EN" "http://www.w3.org/Graphics/SVG/1.1/DTD/svg11.dtd" >
<svg xmlns="http://www.w3.org/2000/svg" xmlns:xlink="http://www.w3.org/1999/xlink" version="1.1">
<metadata>
Created by FontForge 20170731 at Sun May  5 22:18:15 1996
 By Aleksey,,,
Copyright (c) 1991 Digital Typeface Corp.
</metadata>
<defs>
<font id="Garamond-MediumItalic" horiz-adv-x="500" >
  <font-face 
    font-family="Garamond"
    font-weight="700"
    font-style="italic"
    font-stretch="normal"
    units-per-em="1000"
    panose-1="0 0 0 0 0 0 0 0 0 0"
    ascent="800"
    descent="-200"
    x-height="417"
    cap-height="667"
    bbox="-277 -267 989 933"
    underline-thickness="56"
    underline-position="-202"
    slope="16"
    unicode-range="U+0020-2122"
  />
<missing-glyph horiz-adv-x="750" 
d="M46 0v750h658v-750h-658zM658 46v658h-566v-658h566z" />
    <glyph glyph-name=".notdef" horiz-adv-x="750" 
d="M46 0v750h658v-750h-658zM658 46v658h-566v-658h566z" />
    <glyph glyph-name="glyph1" horiz-adv-x="0" 
 />
    <glyph glyph-name="glyph2" horiz-adv-x="278" 
 />
    <glyph glyph-name="space" unicode=" " horiz-adv-x="278" 
 />
    <glyph glyph-name="exclam" unicode="!" horiz-adv-x="211" 
d="M164 678q23 0 37 -15t14 -39q0 -28 -14 -61l-45 -99q-21 -45 -34 -75.5t-27 -70.5l-43 -129l-4 -11l-38 14q22 73 40 160.5t35 206.5t79 119zM57 57q0 -30 -18 -50t-47 -20q-26 0 -42 16t-16 43q0 31 18 51t48 20q26 0 41.5 -16.5t15.5 -43.5z" />
    <glyph glyph-name="quotedbl" unicode="&#x22;" horiz-adv-x="379" 
d="M121 667h106l-107 -268h-46zM300 667h106l-107 -268h-46z" />
    <glyph glyph-name="numbersign" unicode="#" horiz-adv-x="586" 
d="M175 0l116 229h-137l-116 -229h-48l116 229h-116l21 44h119l65 135h-114l20 44h118l109 215h48l-108 -215h137l109 215h48l-108 -215h108l-21 -44h-112l-65 -135h108l-20 -44h-112l-116 -229h-49zM178 273h138l65 135h-138z" />
    <glyph glyph-name="dollar" unicode="$" horiz-adv-x="520" 
d="M-9 90q0 19 21 39t43 20q15 0 21 -8t15 -44.5t43 -52.5l70 245q-97 109 -97 198q0 78 57 132t140 54h10l26 91h47l-27 -93q48 -9 81 -33t33 -50q0 -21 -19 -40t-40 -19q-14 0 -20.5 7.5t-13 39t-35.5 45.5l-64 -222q55 -58 80 -105t25 -93q0 -56 -31 -106t-68.5 -70.5
t-63 -27t-59.5 -6.5l-29 -101h-46l29 101q-55 10 -91.5 38.5t-36.5 60.5zM205 540q0 -25 12 -53.5t31 -45.5l54 191l-13 1q-35 0 -59.5 -26.5t-24.5 -66.5zM287 144q0 59 -47 106l-62 -215q20 0 26 1t27.5 10.5t38.5 36t17 61.5z" />
    <glyph glyph-name="percent" unicode="%" horiz-adv-x="622" 
d="M543 647l-453 -647h-54l452 647h55zM193 657q39 0 63 -27t24 -71q0 -39 -12 -84t-44 -102t-103 -57q-38 0 -62 29t-24 76q0 72 40 154t118 82zM169 396q15 37 27 94.5t12 94.5q0 35 -21 35q-31 0 -57 -93t-26 -142q0 -33 22 -33q11 0 23 12t20 32zM453 331q39 0 63 -27
t24 -71q0 -39 -12 -84t-44 -102t-103 -57q-38 0 -62 29t-24 76q0 74 39.5 155t118.5 81zM429 71q15 37 27 94t12 94q0 36 -21 36q-31 0 -57 -93t-26 -143q0 -32 22 -32q11 0 23 12t20 32z" />
    <glyph glyph-name="ampersand" unicode="&#x26;" horiz-adv-x="907" 
d="M511 90q-113 -104 -247 -104q-117 0 -196.5 73.5t-79.5 182.5q0 96 62 173t140 77q39 0 80 -34q34 43 73 134l3 8q67 0 67 -34q0 -10 -6 -21t-46 -64t-99 -113l-170 -177q47 -103 187 -103q108 0 202 66t158 188l-50 26q-43 24 -68 33t-46 9q-16 0 -29 -11t-13 -25
q0 -19 24 -19q56 -6 56 -36q0 -23 -19.5 -41.5t-43.5 -18.5q-27 0 -47 22t-20 51q0 56 47 107.5t99 51.5q28 0 58.5 -12t92.5 -47l86 -48l76 -38l11 -2q12 0 12 10q0 9 -16 28l-13 16q-12 14 -12 24q0 13 12 30q15 18 26 18q13 0 28 -28.5t15 -56.5q0 -45 -29 -80t-67 -35
q-31 0 -57 12l-78 38l-10 -16q-62 -100 -85.5 -136t-67.5 -78zM197 378q0 17 -18.5 28t-46.5 11q-66 0 -66 -107q0 -24 2 -39t10 -39l100 110q19 19 19 36z" />
    <glyph glyph-name="quotesingle" unicode="'" horiz-adv-x="215" 
d="M127 667h109l-106 -268h-50z" />
    <glyph glyph-name="parenleft" unicode="(" horiz-adv-x="350" 
d="M70 -125q-38 81 -53 137.5t-15 119.5q0 214 135 353.5t236 194.5l20 -27q-58 -51 -98.5 -97t-119.5 -168.5t-79 -335.5q0 -65 13 -131t37 -121l-31 -13q-10 17 -21.5 39.5t-23.5 48.5z" />
    <glyph glyph-name="parenright" unicode=")" horiz-adv-x="350" 
d="M159 593q38 -81 53 -138t15 -120q0 -212 -133 -350.5t-237 -197.5l-21 27q110 96 203.5 242t93.5 359q0 65 -13 131t-37 121l32 13q2 -3 17 -32t27 -55z" />
    <glyph glyph-name="asterisk" unicode="*" horiz-adv-x="487" 
d="M150 356q-18 0 -32 14t-14 31q0 35 69 59l33 12q16 5 22 7t14 3l12 -17q-15 -25 -23 -37t-30.5 -42t-50.5 -30zM143 618q16 0 31 -11t38 -40l32 -41l8 -13l-13 -17q-78 17 -109 34t-31 42q0 18 13 32t31 14zM305 680q19 0 33 -12t14 -29q0 -14 -6.5 -29t-26.5 -46
t-22.5 -34.5t-11.5 -14.5l-22 6l-5 74q0 47 10.5 66t36.5 19zM459 502q0 -44 -48 -44q-24 0 -71 12l-38 10l-9 2l-1 23q38 19 71.5 30t51.5 11t31 -12t13 -32zM319 436q46 -52 46 -84q0 -16 -14 -29t-33 -13q-29 0 -40.5 30.5t-11.5 116.5v8l23 7l5 -7z" />
    <glyph glyph-name="plus" unicode="+" 
d="M198 574h58v-196h205v-57h-205v-196h-58v196h-204v57h204v196z" />
    <glyph glyph-name="comma" unicode="," horiz-adv-x="158" 
d="M-17 -18q0 19 -13 19l-15 -1q-20 0 -34.5 15.5t-14.5 37.5q0 28 18.5 45.5t47.5 17.5q34 0 57 -26t23 -67q0 -63 -48 -105t-122 -42l-22 1l2 32q28 0 37 1t30.5 7t37.5 25t16 40z" />
    <glyph glyph-name="hyphen" unicode="-" horiz-adv-x="304" 
d="M223 297l-25 -85h-220l24 85h221z" />
    <glyph glyph-name="period" unicode="." horiz-adv-x="168" 
d="M50 57q0 -30 -18 -50t-47 -20q-26 0 -42 16t-16 43q0 31 18 51t48 20q26 0 41.5 -16.5t15.5 -43.5z" />
    <glyph glyph-name="slash" unicode="/" horiz-adv-x="314" 
d="M388 667l-455 -667h-53l451 667h57z" />
    <glyph glyph-name="zero" unicode="0" horiz-adv-x="520" 
d="M306 651q76 0 117 -52t41 -148q0 -73 -24 -159t-63 -155t-95 -108t-115 -39q-78 0 -119 52t-41 151q0 43 13 107.5t43 144.5t98 143t145 63zM125 232q-7 -51 -7 -98q0 -29 6.5 -65.5t44.5 -36.5q31 0 66.5 48.5t62 131.5t40.5 156t14 132q0 113 -47 108
q-28 0 -55.5 -31.5t-51.5 -87.5t-46 -133.5t-27 -123.5z" />
    <glyph glyph-name="one" unicode="1" horiz-adv-x="520" 
d="M144 566l214 94l25 -27q-12 -28 -19.5 -48.5t-14.5 -48.5l-105 -366q-20 -71 -20 -93q0 -18 13.5 -29t36.5 -11h19l-11 -37l-127 5l-51 1q-34 0 -45.5 -1t-46.5 -5l11 37h7q42 0 60.5 24t43.5 109l114 396l-87 -37z" />
    <glyph glyph-name="two" unicode="2" horiz-adv-x="520" 
d="M330 2l-145 2l-115 -1l-91 -3l-12 31l14 14l138 136q57 58 90.5 96t75.5 97.5t42 123.5q0 34 -23 57t-58 23q-69 0 -125 -83l-30 20q32 64 86.5 99.5t119.5 35.5q69 0 113 -39t44 -101q0 -98 -92.5 -189.5t-251.5 -214.5l-15 -12h92q109 0 141 11.5t53 58.5l3 6l34 -14
l-69 -156z" />
    <glyph glyph-name="three" unicode="3" horiz-adv-x="520" 
d="M329 509q0 35 -20 57t-54 22q-27 0 -47 -9t-55 -37l-23 27q37 39 81 60.5t88 21.5q62 0 102 -36t40 -93q0 -38 -18 -72.5t-47 -54.5t-79 -34q56 -13 81.5 -43.5t25.5 -83.5q0 -104 -77.5 -174t-192.5 -70q-63 0 -102 21.5t-39 55.5q0 21 14.5 34.5t35.5 13.5q33 0 54 -40
l13 -24q13 -24 40 -24q52 0 93.5 64t41.5 138q0 106 -108 106l-16 -1l11 39q26 0 40 3.5t43.5 16t51.5 45.5t22 71z" />
    <glyph glyph-name="four" unicode="4" horiz-adv-x="520" 
d="M471 660l-115 -403h69l-24 -86h-63l-49 -171h-110l49 171h-253l35 86l353 383zM334 539l-256 -282h175z" />
    <glyph glyph-name="five" unicode="5" horiz-adv-x="520" 
d="M461 640l-36 -95h-212l-39 -103q216 0 216 -175q0 -113 -84 -195t-201 -82q-57 0 -91.5 19.5t-34.5 51.5q0 19 14 34t34 15q32 0 52 -38q23 -40 51 -40q55 0 102 65t47 142q0 107 -127 107q-22 0 -51 -4l-12 11l112 287h260z" />
    <glyph glyph-name="six" unicode="6" horiz-adv-x="520" 
d="M167 327q64 38 124 38q59 0 96 -38t37 -100q0 -96 -70.5 -166.5t-166.5 -70.5q-84 0 -132 48t-48 133q0 70 38 147.5t138 175t274 156.5l14 -33q-63 -34 -101.5 -61.5t-84 -72.5t-70.5 -78t-48 -78zM203 35q47 0 77 47t30 120q0 48 -19 76t-53 28q-36 0 -94 -34
q-23 -78 -23 -124q0 -54 21.5 -83.5t60.5 -29.5z" />
    <glyph glyph-name="seven" unicode="7" horiz-adv-x="520" 
d="M59 0l357 552h-155q-74 0 -106.5 -16t-53.5 -64l-32 14q6 13 10.5 26t7.5 21l28 90l6 20l115 -3h67l203 7l6 -22l-353 -625h-100z" />
    <glyph glyph-name="eight" unicode="8" horiz-adv-x="520" 
d="M384 171q0 -77 -58 -129t-144 -52q-76 0 -123 44t-47 116q0 65 42 112.5t114 64.5q-66 66 -66 146q0 73 55 125t132 52q75 0 118 -38t43 -104q0 -121 -146 -171l10 -10t25 -32.5t33 -61t12 -62.5zM283 608q-36 0 -59 -25t-23 -64q0 -34 17 -68t57 -79q80 71 80 156
q0 38 -19 59t-53 21zM197 32q35 0 60 27t25 66q0 85 -85 167q-38 -25 -60 -66t-22 -89q0 -49 22 -77t60 -28z" />
    <glyph glyph-name="nine" unicode="9" horiz-adv-x="520" 
d="M313 313q-66 -38 -124 -38q-59 0 -96 38t-37 100q0 96 70.5 166.5t165.5 70.5q84 0 132.5 -48.5t48.5 -132.5q0 -71 -39 -150t-119.5 -154.5t-164 -117.5t-127.5 -57l-14 33q63 33 100.5 60.5t84 73t71.5 78.5t48 78zM277 605q-47 0 -77 -47t-30 -120q0 -48 19 -76
t53 -28q36 0 94 34q22 78 22 124q0 53 -21 83t-60 30z" />
    <glyph glyph-name="colon" unicode=":" horiz-adv-x="168" 
d="M50 57q0 -30 -18 -50t-47 -20q-26 0 -42 16t-16 43q0 31 18 51t48 20q26 0 41.5 -16.5t15.5 -43.5zM128 327q0 -31 -18.5 -50.5t-47.5 -19.5q-26 0 -42 16t-16 43q0 31 18 51t48 20q26 0 42 -16.5t16 -43.5z" />
    <glyph glyph-name="semicolon" unicode=";" horiz-adv-x="158" 
d="M-11 -18q0 19 -13 19l-15 -1q-20 0 -34.5 15.5t-14.5 37.5q0 28 18.5 45.5t47.5 17.5q34 0 57 -26t23 -67q0 -63 -48 -105t-122 -42l-22 1l2 32q28 0 37 1t30.5 7t37.5 25t16 40zM115 327q0 -32 -18.5 -51.5t-47.5 -19.5q-26 0 -41.5 15.5t-15.5 43.5q0 32 18 52t47 20
q26 0 42 -16.5t16 -43.5z" />
    <glyph glyph-name="less" unicode="&#x3c;" 
d="M151 389l285 -192v-129l-417 282v7l417 265v-49z" />
    <glyph glyph-name="equal" unicode="=" 
d="M461 394h-467v55h467v-55zM461 249h-467v55h467v-55z" />
    <glyph glyph-name="greater" unicode="&#x3e;" 
d="M305 301l-286 192v129l417 -282v-7l-417 -265v49z" />
    <glyph glyph-name="question" unicode="?" horiz-adv-x="353" 
d="M165 474q51 16 62 20t39.5 18.5t28.5 46.5q0 19 -12 32t-30 13t-39 -9l-19 -8q-15 -6 -30 -6q-18 0 -30.5 13.5t-12.5 31.5q0 23 19 37t50 14q58 0 107 -50t49 -111q0 -73 -42 -97t-82 -36t-61 -18.5t-48.5 -18t-27.5 -37.5q0 -35 42 -35l23 1l27 3q20 0 33 -13t13 -33
q0 -42 -45 -42q-51 0 -95.5 51.5t-44.5 109.5q0 57 30.5 80.5t95.5 42.5zM165 57q0 -30 -18 -50t-47 -20q-26 0 -42 16t-16 43q0 31 18 51t48 20q26 0 41.5 -16.5t15.5 -43.5z" />
    <glyph glyph-name="at" unicode="@" horiz-adv-x="778" 
d="M375 253q-53 -60 -92 -86t-76 -26q-42 0 -42 53q0 95 64.5 174t109 104t102.5 25l18 -1l8 19l84 10l5 -3q-3 -8 -5.5 -13.5t-13 -29t-14.5 -33.5l-58 -166q-12 -38 -12 -58q0 -26 15 -26q24 0 50 13.5t65.5 55t68 96t28.5 105.5q0 72 -51 116t-137 44q-78 0 -150.5 -31
t-117 -76t-73.5 -86.5t-45 -78.5t-22 -61.5t-6 -51.5q0 -90 57 -146t149 -56q68 0 116.5 22.5t105.5 59.5l19 14l41 -17l-12 -9q-48 -36 -83.5 -58t-88 -43t-126.5 -21q-108 0 -174 67t-66 177q0 82 48.5 172t159.5 184t284 94q105 0 167 -52t62 -140q0 -118 -108 -239
t-210 -121q-24 -3 -39.5 14.5t-15.5 38.5q0 16 2.5 33t8.5 38zM261 228q0 -16 14 -16q9 0 24.5 9.5t34 28t37 48.5t34.5 63t24.5 54t8.5 31q0 18 -25 18q-50 0 -101 -92.5t-51 -143.5z" />
    <glyph glyph-name="A" unicode="A" horiz-adv-x="744" 
d="M627 672l-35 -170l-60 -358q-8 -53 -8 -65q0 -23 14.5 -32.5t51.5 -9.5l-10 -37l-12 1l-75 3h-50q-82 0 -127 -4l10 37h7q43 0 64 31q5 10 9.5 24.5t10.5 42.5l26 136h-193l-97 -121l-37 -51q-15 -23 -15 -38q0 -24 41 -24h10l-10 -37q-18 0 -63.5 2t-60.5 2l-120 -3
l-7 -1l11 37q29 0 65 21.5t65 48t65 70.5l406 478q31 4 59.5 11t52.5 17zM499 575l-209 -256h161z" />
    <glyph glyph-name="B" unicode="B" horiz-adv-x="649" 
d="M444 39q-38 -22 -75 -31t-94 -9l-31 1l-74 3l-65 1l-140 -4h-11l11 36h7q41 0 60 24.5t44 109.5l94 326l13 46q6 23 6 46q0 42 -50 42h-14l10 36h12l97 -2l159 3q85 0 114 -21.5t43 -52t14 -67.5q0 -68 -44.5 -114.5t-122.5 -60.5q65 -14 99 -51t34 -93q0 -50 -26 -95.5
t-70 -72.5zM415 407q23 20 37 54.5t14 71.5q0 94 -112 94l-30 -1l-74 -256l38 -1q84 0 127 38zM174 83q0 -24 15.5 -33.5t53.5 -9.5q78 0 129 50t51 127q0 70 -33.5 87t-58.5 21t-73 4h-19l-54 -187q-11 -41 -11 -59z" />
    <glyph glyph-name="C" unicode="C" horiz-adv-x="699" 
d="M542 145l-43 -108l-10 -32q-26 0 -44.5 -2.5t-53 -7t-66 -7t-37.5 -2.5q-125 0 -197 72t-72 198q0 77 29 153.5t114 173.5t273 97q30 0 45 -1t43 -7l30 -6l20 -4q41 -8 58.5 -11t42.5 -3q-4 -10 -13.5 -36t-19 -54.5t-14.5 -46t-11 -45.5h-37q8 39 8 61q0 53 -35 82
t-100 29q-62 0 -120.5 -31t-100.5 -88.5t-69 -135t-27 -145.5q0 -96 49 -152t134 -56q133 0 199 153h41q-7 -14 -16 -38z" />
    <glyph glyph-name="D" unicode="D" horiz-adv-x="738" 
d="M214 664h35l100 3h55q46 0 77.5 -5t74.5 -25t76 -81.5t33 -143.5q0 -111 -54 -208t-149.5 -151t-229.5 -54l-24 1l-145 4l-104 -4h-12l11 36h7q42 0 60.5 24t43.5 110l94 327q9 30 14 51.5t5 40.5q0 42 -50 42h-14l10 36zM170 91q0 -50 60 -50q129 0 222 109.5t93 261.5
q0 99 -52.5 155.5t-143.5 56.5l-34 -2l-135 -471q-10 -36 -10 -60z" />
    <glyph glyph-name="E" unicode="E" horiz-adv-x="610" 
d="M552 509h-38l-1 10q0 69 -31 87t-148 18h-11l-72 -253h72q69 0 94.5 15.5t44.5 69.5h36l-61 -211l-3 -14h-37q9 36 9 51q0 23 -16 34.5t-79 11.5h-73l-49 -171q-7 -24 -10.5 -42.5t-3.5 -28.5q0 -23 19.5 -32.5t66.5 -9.5q98 0 144.5 27.5t75.5 102.5l39 -17
q-9 -16 -34.5 -72t-39.5 -85l-19 1l-158 3l-222 -1l-78 -2l-15 -1l11 37h7q42 0 60.5 24t43.5 109l94 327q9 30 14 51.5t5 40.5q0 41 -50 41h-14l10 37l124 -4l65 1l218 2l25 1q-8 -47 -11.5 -80t-3.5 -69v-9z" />
    <glyph glyph-name="F" unicode="F" horiz-adv-x="626" 
d="M558 526v-19h-40v13q0 61 -34.5 82.5t-132.5 21.5h-26l-76 -268h53q87 0 114.5 14t48.5 70h36q-13 -30 -36 -104.5t-32 -118.5h-38q10 29 10 52q0 44 -90 44h-79l-41 -143q-11 -38 -15 -58t-4 -34q0 -41 50 -41h14l-10 -37l-18 1l-121 4l-119 -4l-18 -1l11 37h10
q42 0 60.5 24t43.5 109l93 327q12 43 16 60t4 32q0 41 -51 41h-14l11 37l11 -1l179 -3l129 1l113 3l-6 -50q-4 -34 -5 -51.5t-1 -39.5z" />
    <glyph glyph-name="G" unicode="G" horiz-adv-x="707" 
d="M261 -13q-114 0 -183 75t-69 199q0 75 28 150t111.5 172t271.5 97q28 0 46 -1t50 -6l48 -7l33 -5l71 -11q-18 -40 -34 -93l-25 -93h-42q4 18 6 34t2 30q0 51 -35 81t-94 30q-79 0 -147.5 -48.5t-119 -145t-50.5 -208.5q0 -95 42.5 -151.5t114.5 -56.5q78 0 99 72l14 50
q11 38 15 58.5t4 33.5q0 42 -50 42h-12l10 36q15 0 58 -2t79 -2h21h16h13h12q36 0 63 4l-11 -38q-39 0 -58 -20t-35 -78l-30 -109l-11 -49l-76 -18q-49 -12 -82 -17t-64 -5z" />
    <glyph glyph-name="H" unicode="H" horiz-adv-x="840" 
d="M600 497q11 42 15 60t4 31q0 42 -50 42h-14l10 37l137 -5l136 5l-10 -37h-8q-39 0 -55 -17t-23.5 -36t-25.5 -80l-93 -327q-11 -38 -15 -58t-4 -34q0 -41 49 -41h15l-11 -37l-22 1l-111 3l-114 -3l-26 -1l11 37h7q42 0 60.5 24t43.5 109l43 150h-313l-43 -150
q-11 -38 -15 -58t-4 -34q0 -41 50 -41h14l-11 -37l-127 4l-119 -3l-27 -1l11 37h7q42 0 60.5 24t43.5 109l94 327q9 30 14 51.5t5 40.5q0 41 -50 41h-14l10 37l27 -2l116 -3l131 5l-11 -37h-8q-39 0 -55 -17t-23.5 -36t-25.5 -80l-36 -129h313z" />
    <glyph glyph-name="I" unicode="I" horiz-adv-x="418" 
d="M276 663l122 3l18 1l-11 -37h-10q-39 0 -52.5 -14.5t-19.5 -26t-12 -28.5l-20 -64l-93 -327q-9 -32 -14 -55.5t-5 -36.5q0 -41 50 -41h14l-11 -37l-24 1l-118 3l-102 -2l-34 -2l11 37h12q42 0 60.5 24t43.5 109l94 327q11 40 15 59t4 33q0 41 -50 41h-9l10 37z" />
    <glyph glyph-name="J" unicode="J" horiz-adv-x="406" 
d="M255 662l88 1l76 4l-10 -36h-10q-40 0 -54 -16t-19 -27t-11 -27l-20 -64l-97 -340q-32 -112 -60.5 -164t-78 -92.5t-106.5 -64t-102 -23.5q-63 0 -63 35q0 15 17.5 40.5t32.5 25.5q9 0 46.5 -20t56.5 -20q22 0 40 22.5t41 78.5l29 79l33 112l95 331q11 41 15 60t4 33
q0 41 -50 41h-14l10 36q39 -5 111 -5z" />
    <glyph glyph-name="K" unicode="K" horiz-adv-x="733" 
d="M544 609q0 21 -54 21l10 37q55 -5 110 -5l103 3l28 2l-11 -37q-33 -6 -54 -16l-40 -25l-41 -29l-222 -169l108 -215q42 -82 69.5 -110.5t67.5 -28.5l-11 -37l-17 1l-106 3l-123 -3l-25 -1l11 37h9q47 0 47 31q0 7 -3 17.5t-12 28.5l-101 210l-64 -47l-30 -107
q-11 -38 -15 -58t-4 -34q0 -41 50 -41h14l-11 -37l-12 1l-131 3l-130 -4l11 37h7q42 0 60.5 24t43.5 109l94 327q11 40 15 59t4 33q0 41 -50 41h-14l10 37q45 -5 112 -5l144 4l18 1l-11 -37h-8q-39 0 -52.5 -14.5t-19.5 -26t-12 -28.5l-20 -64l-39 -140l280 224q17 14 17 28
z" />
    <glyph glyph-name="L" unicode="L" horiz-adv-x="601" 
d="M508 78q-24 -52 -32 -79q-46 4 -84 5t-108 1l-81 -1l-230 -3l-19 -1l11 37h11q42 0 60.5 23.5t42.5 109.5l94 327q9 31 14 52.5t5 40.5q0 40 -50 40h-14l10 37l14 -1l122 -4l123 4l15 1l-11 -37h-7q-40 0 -56 -17.5t-23.5 -37t-24.5 -78.5l-87 -302q-23 -83 -23 -105
q0 -27 18 -36t75 -9q105 0 153 26t85 103l35 -14z" />
    <glyph glyph-name="M" unicode="M" horiz-adv-x="950" 
d="M284 663l121 4l28 -461l303 461l90 -4l72 3l32 1l-11 -36q-51 0 -65.5 -17.5t-31.5 -97.5l-73 -346q-7 -35 -10 -56.5t-3 -28.5q0 -49 54 -49h14l-11 -36l-122 4l-143 -4l11 36h4q42 0 59 24t35 110l75 367l-230 -348l-116 -181l-9 -15h-24l-30 544l-151 -367l-22 -60
q-6 -21 -6 -32q0 -42 52 -42h18l-10 -36h-18l-107 3l-104 -2l-19 -1l11 36h8q37 0 60.5 18t38.5 41.5t35 74.5l165 390q8 21 8 33q0 38 -83 38h-13l10 36z" />
    <glyph glyph-name="N" unicode="N" horiz-adv-x="849" 
d="M215 662h15q29 0 53 2t39 3q2 -9 7 -22t13 -30l217 -465l109 379q4 14 7 30.5t3 27.5q0 23 -15 32.5t-52 9.5l-42 1h-11l10 37l136 -5l139 5l-11 -37h-6q-39 0 -55 -17t-24.5 -37t-26.5 -79l-127 -410q21 -47 72 -68l-5 -19l-13 1l-55 3l-59 -4q-15 10 -26.5 24.5
t-20.5 35.5l-235 490l-105 -367q-9 -33 -16 -65t-7 -44q0 -19 15.5 -28t48.5 -9h40h14l-11 -37l-129 4l-120 -3l-18 -1l11 37q45 0 64 23t45 110l113 369l6 24t3 23q0 23 -23 33.5t-75 10.5h-14l11 37q44 -5 111 -5z" />
    <glyph glyph-name="O" unicode="O" horiz-adv-x="653" 
d="M377 680q104 0 160.5 -64.5t56.5 -182.5q0 -79 -27 -159t-77 -146t-120.5 -104t-144.5 -38q-97 0 -155 66t-58 177q0 75 22 147.5t69.5 145.5t119 115.5t154.5 42.5zM427 239q54 130 54 245q0 154 -100 154q-95 0 -155 -114t-80 -183.5t-20 -142.5q0 -81 25.5 -125.5
t75.5 -44.5q53 0 105 55t95 156z" />
    <glyph glyph-name="P" unicode="P" horiz-adv-x="605" 
d="M295 313q80 0 127.5 48.5t47.5 128.5q0 135 -124 135l-23 -1l-130 -454q-11 -38 -15 -58t-4 -34q0 -41 50 -41h16l-11 -37l-19 2l-85 3h-56l-62 -1h-35q-11 -3 -18 -4l11 37h7q42 0 60.5 24t43.5 109l94 327q9 30 14 51.5t5 40.5q0 41 -50 41h-14l10 37q21 0 41.5 -1.5
t42.5 -2.5l124 4h29q94 0 152 -28t58 -123q0 -104 -75.5 -171.5t-191.5 -67.5q-12 0 -26 1t-24 2l10 33h20z" />
    <glyph glyph-name="Q" unicode="Q" horiz-adv-x="650" 
d="M316 -93l81 -17q85 -18 138 -26.5t85 -8.5q31 0 47.5 7t16.5 21q0 6 -6 17t-6 16q0 22 28 22q18 0 33 -11t15 -26q0 -30 -61.5 -62.5t-95.5 -44t-75 -11.5q-38 0 -123 16l-77 17l-52 11l-133 31l-129 26q-19 3 -37.5 5t-33.5 2q-23 0 -35.5 -4t-27.5 -17l-22 23l74 79
l77 -3q113 0 175 16l10 4l-66 24q-53 19 -80.5 93t-27.5 141q0 56 24 130.5t68 144.5t118 114t160 44q99 0 156 -65t57 -178q0 -80 -28.5 -164t-90 -163.5t-189.5 -127.5l-145 -43l85 -14zM424 239q54 130 54 246q0 153 -100 153q-95 0 -154 -112.5t-80 -184t-21 -143.5
q0 -81 25.5 -125.5t76.5 -44.5q52 0 104 55t95 156z" />
    <glyph glyph-name="R" unicode="R" horiz-adv-x="679" 
d="M506 100q21 -37 41 -50t54 -13l-11 -37l-14 1l-78 2l-71 -3q-16 21 -22.5 33.5t-12.5 25.5t-17 39l-38 92l-29 68q-10 23 -21.5 38t-41.5 15h-12l-40 -141q-11 -38 -15 -58t-4 -34q0 -41 50 -41h14l-11 -37l-20 1l-105 3l-121 -3l-27 -1l11 37h7q42 0 60.5 24t43.5 109
l94 327q11 40 15 59t4 33q0 41 -50 41h-16l10 37l131 -3h53l65 3h24q164 0 164 -137q0 -79 -50.5 -135.5t-131.5 -69.5q14 -17 23 -32.5t27 -54.5t35.5 -75t32.5 -63zM383 370q33 21 54.5 61.5t21.5 85.5q0 106 -106 106l-31 -2l-78 -275q13 -2 20 -2h15q63 0 104 26z" />
    <glyph glyph-name="S" unicode="S" horiz-adv-x="560" 
d="M70 196q-7 -38 -7 -59q0 -48 32 -78t84 -30q53 0 88 32t35 80q0 51 -56 112l-60 67q-47 53 -67 92t-20 80q0 82 61 135t155 53q46 0 80 -10l43 -13q5 -2 21.5 -5t29.5 -5q-30 -82 -37 -156h-40q4 27 4 43q0 48 -29 76t-80 28q-44 0 -74 -26t-30 -65q0 -51 65 -119l46 -49
q51 -54 74.5 -99.5t23.5 -92.5q0 -88 -65 -144t-169 -56q-43 0 -105 13l-44 11q-13 3 -22.5 5t-25.5 2q34 105 48 178h41z" />
    <glyph glyph-name="T" unicode="T" horiz-adv-x="653" 
d="M111 686l3 9h24l-1 -6q-1 -11 23 -17l57 -5h329l38 2q30 0 41.5 5t19.5 20h26q-29 -72 -57 -179l-33 7l8 50q0 31 -27.5 43t-98.5 12h-36l-131 -457q-11 -40 -15 -59.5t-4 -32.5q0 -41 50 -41h18l-11 -37l-30 1l-119 3l-106 -3l-21 -1l11 37h7q42 0 60.5 24t43.5 109
l131 457h-13q-103 0 -145 -22t-66 -90l-32 7l24 66z" />
    <glyph glyph-name="U" unicode="U" horiz-adv-x="764" 
d="M256 662l152 5l-10 -37h-8q-39 0 -55.5 -17.5t-28.5 -51.5l-20 -64l-74 -254q-9 -32 -15 -60t-6 -44q0 -46 33 -74t88 -28q113 0 150 66.5t54 119.5l25 78l56 196q12 40 16 58.5t4 33.5q0 41 -50 41h-8l11 37l103 -4l112 4l-10 -37h-10q-36 0 -55 -18.5t-35 -69.5
l-77 -244q-27 -84 -56 -155.5t-91 -113.5t-167 -42q-208 0 -208 151q0 36 17 95l76 264q12 40 16 58.5t4 33.5q0 41 -50 41h-15l11 37z" />
    <glyph glyph-name="V" unicode="V" horiz-adv-x="723" 
d="M153 539q-5 53 -23 72t-61 19l11 37l108 -3l140 2l20 1l-11 -37q-44 0 -58 -10t-14 -40q0 -22 5 -59l41 -339l223 313l42 61q19 30 19 45q0 29 -56 29l11 37q43 -4 105 -4q36 0 69 1.5t54 2.5l-10 -37q-41 0 -77.5 -32.5t-110.5 -133.5l-224 -306l-59 -80l-64 -91l-15 5
v23z" />
    <glyph glyph-name="W" unicode="W" horiz-adv-x="940" 
d="M151 442l-16 108q-10 51 -19.5 66t-32.5 15l-10 -1l11 37l94 -4l99 3l19 1l-11 -37l-10 1q-16 0 -21.5 -6.5t-5.5 -23.5l2 -39l43 -390l115 154l-35 236q-6 40 -15.5 54t-31.5 14l10 37l89 -4l92 3l21 1l-11 -37q-25 0 -33.5 -7.5t-6.5 -28.5l15 -139l90 125q14 20 14 31
q0 19 -29 19h-10l10 37h7l95 -3l90 2l14 1l-10 -37q-46 0 -73 -17.5t-64 -65.5l-126 -167l24 -208l294 408q17 24 17 33q0 17 -28 17h-6l11 37q29 -4 68 -4l99 4l-10 -37q-24 0 -36.5 -6.5t-31.5 -34.5l-451 -602l-15 7l-1 16l-26 241l-199 -264l-14 7l-1 11z" />
    <glyph glyph-name="X" unicode="X" horiz-adv-x="774" 
d="M121 630l10 37q45 -4 101 -4l121 3l25 1l-10 -37l-8 -1q-21 0 -29 -6t-8 -21q0 -10 11 -38l60 -153l150 153q27 29 27 45q0 21 -48 21h-6l11 37l110 -5l128 5l-10 -37q-41 -6 -79 -32t-63.5 -46.5t-42.5 -37.5l-158 -154l73 -187l30 -64q20 -41 39.5 -56.5t53.5 -15.5
l-11 -37l-139 4q-25 0 -55.5 -1.5t-66.5 -2.5l10 37h7q50 0 50 27q0 12 -9 36l-69 173l-157 -157q-22 -22 -30.5 -34.5t-8.5 -21.5q0 -23 40 -23h13l-11 -37l-23 1l-87 3l-97 -3l-25 -1l11 37q32 3 60.5 21.5t65.5 48t54 45.5l177 173l-99 233q-18 44 -35 58t-53 14z" />
    <glyph glyph-name="Y" unicode="Y" horiz-adv-x="630" 
d="M88 615q-16 15 -53 15l11 37q16 -2 35 -3t54 -1l95 1l72 3l-11 -37h-9q-48 0 -48 -36q0 -11 2.5 -20.5t5.5 -20.5l58 -201l159 186q25 30 34 44t9 23q0 25 -52 25l11 37l103 -4l89 3l24 1l-10 -37q-31 0 -57 -15.5t-62 -54.5l-233 -256l-39 -134q-11 -40 -15 -59.5
t-4 -32.5q0 -41 50 -41h14l-10 -37l-12 1l-124 3l-120 -3l-18 -1l11 37h8q42 0 60.5 24t43.5 109l38 134l-56 199q-11 40 -25.5 69.5t-28.5 42.5z" />
    <glyph glyph-name="Z" unicode="Z" horiz-adv-x="785" 
d="M548 621h-128q-123 0 -172 -25t-85 -109l-32 12q35 70 66 163l2 9q6 -1 10.5 -1t8.5 -1l113 -2l168 -1h85q51 0 82.5 1.5t59.5 3.5l8 -22l-63 -57l-515 -540h131l137 2q91 0 141.5 32.5t87.5 111.5l32 -13l-5 -10l-67 -165l-3 -10l-19 1l-150 5h-101l-209 -1l-140 -4
l-20 -1l-4 23l48 42q19 17 126 128.5t224 235t183 192.5z" />
    <glyph glyph-name="bracketleft" unicode="[" horiz-adv-x="315" 
d="M119 -200h-211l249 867h203l-11 -38h-103l-226 -791h110z" />
    <glyph glyph-name="backslash" unicode="\" 
d="M161 707h51l66 -813h-50z" />
    <glyph glyph-name="bracketright" unicode="]" horiz-adv-x="315" 
d="M89 667h211l-249 -867h-203l11 38h102l227 791h-110z" />
    <glyph glyph-name="asciicircum" unicode="^" 
d="M271 569l-192 -286h-129l282 417h7l265 -417h-49z" />
    <glyph glyph-name="underscore" unicode="_" 
d="M481 -146h-507v56h507v-56z" />
    <glyph glyph-name="grave" unicode="`" horiz-adv-x="507" 
d="M357 451l-94 171l-3 9q0 9 14 9h68l39 -181z" />
    <glyph glyph-name="a" unicode="a" horiz-adv-x="489" 
d="M232 -10q-37 0 -37 48q0 40 13 83q-64 -72 -108 -101.5t-89 -29.5q-23 0 -36 16t-13 46q0 53 25 113t75 122t102.5 90.5t120.5 28.5l21 -1l10 22l98 13l5 -4q0 -4 -6.5 -17.5t-13 -27.5t-35.5 -90t-43 -121.5t-18 -65.5t-4 -29q0 -19 11 -19t23 12l22 19l31 30l20 -20
l-7 -8q-102 -109 -167 -109zM75 92q0 -19 15 -19q10 0 28 11.5t40 31.5q23 23 44 56.5t43.5 80.5t29 65.5t6.5 28.5q0 21 -29 21q-31 0 -58 -24t-73 -108t-46 -144z" />
    <glyph glyph-name="b" unicode="b" horiz-adv-x="476" 
d="M395 370q0 -74 -50 -163.5t-133.5 -153t-176.5 -63.5q-69 0 -69 62q0 33 35 138l124 373q2 9 5.5 21t3.5 21q0 16 -11 22t-41 6h-12l10 34h18q66 0 102.5 6t65.5 20l13 -13q-14 -28 -23.5 -50.5t-22.5 -58.5l-93 -266q110 119 200 119q55 0 55 -54zM208 152
q28 48 50.5 104.5t22.5 80.5q0 18 -16 18q-18 0 -46.5 -21t-63 -61.5t-63.5 -106.5t-29 -111q0 -23 22 -23q24 0 57.5 32.5t65.5 87.5z" />
    <glyph glyph-name="c" unicode="c" horiz-adv-x="381" 
d="M-19 89q0 127 87 231t194 104q25 0 42 -12t17 -30q0 -24 -20 -45t-43 -21q-17 0 -24.5 10t-7.5 34q0 22 -15 22q-34 0 -77 -91.5t-43 -184.5q0 -57 34 -57q26 0 49 18t38.5 31.5t24.5 21.5l6 6l19 -23q-48 -53 -99 -83t-94 -30q-42 0 -65 26t-23 73z" />
    <glyph glyph-name="d" unicode="d" horiz-adv-x="507" 
d="M320 24q-47 -34 -89 -34q-37 0 -37 39q0 29 15 82q-47 -57 -94.5 -89t-85.5 -32q-59 0 -59 68q0 40 19 94t57 116t98.5 109t110.5 47q29 0 40 -21l54 160q8 27 8 43t-10.5 21.5t-40.5 5.5h-12l9 34h18q68 0 103 5.5t66 20.5l12 -13l-18 -30q-15 -28 -34 -86l-20 -59
l-50 -156l-65 -213q-9 -33 -9 -46q0 -17 11 -17q19 0 75 57l7 7l23 -24l-9 -9q-58 -57 -93 -80zM178 106q54 55 76.5 104t31.5 82.5t9 56.5q0 38 -27 38q-49 0 -107 -81.5t-79.5 -138t-21.5 -96.5q0 -31 20 -31q15 0 42 18t56 48z" />
    <glyph glyph-name="e" unicode="e" horiz-adv-x="387" 
d="M-21 91q0 106 80 219.5t181 113.5q61 0 61 -73q0 -61 -67.5 -104.5t-132.5 -74.5q-3 -14 -4 -22t-1 -20q0 -73 33 -73q35 0 109 68l7 7l20 -25q-61 -61 -108 -89t-90 -28q-88 0 -88 101zM194 382q-7 0 -26.5 -21.5t-36.5 -67t-23 -80.5q103 45 103 130q0 39 -17 39z" />
    <glyph glyph-name="f" unicode="f" horiz-adv-x="281" 
d="M178 601q65 85 171 85q42 0 67.5 -14t25.5 -38q0 -22 -19 -42t-42 -20q-28 0 -33 31l-3 19q-4 28 -19 28q-32 0 -70 -68t-64 -169l84 2l-11 -40l-84 2l-61 -199q-39 -138 -65.5 -201t-78.5 -128.5t-150 -65.5q-45 0 -72 14t-27 39q0 21 19.5 42.5t39.5 21.5
q26 0 32.5 -33t11 -40t18.5 -7q30 0 51 32.5t34 62t25 62.5l47 151l76 249l-67 -2l11 40l66 -2q21 70 39.5 110.5t47.5 77.5z" />
    <glyph glyph-name="g" unicode="g" horiz-adv-x="488" 
d="M356 304q0 -64 -44.5 -115t-122.5 -51q-17 0 -40 4q-26 -18 -26 -27q0 -10 21.5 -25t94.5 -54.5t96 -60.5t23 -50q0 -32 -21 -61.5t-69 -55t-129 -25.5q-99 0 -160.5 34t-61.5 90q0 47 43 79t115 38q-48 24 -48 55q0 22 35 44l56 31q-68 26 -68 105q0 71 48.5 117.5
t122.5 46.5q66 0 108 -39h91l-1 -46h-69q6 -18 6 -34zM243 249q18 50 18 91q0 47 -33 47q-32 0 -58 -57.5t-26 -110.5q0 -48 35 -48q38 0 64 78zM146 -180q43 0 74 21t31 52q0 24 -39 47l-107 62q-81 -30 -81 -89q0 -38 35.5 -65.5t86.5 -27.5z" />
    <glyph glyph-name="h" unicode="h" horiz-adv-x="514" 
d="M-16 -8l-9 -2q-9 0 -7 6l1 4l193 563q9 27 9 43t-11 22t-41 6h-12l10 33h18q69 0 104 6t64 21l13 -14l-8 -15q-6 -13 -12 -28l-13 -32.5t-14 -37.5l-100 -285q48 65 101 104t95 39q55 0 55 -68q0 -53 -25.5 -126t-78.5 -157t-147 -84q-48 0 -48 32q0 22 13.5 39.5
t29.5 17.5q19 0 26 -19l5 -12q6 -16 16 -16q17 0 34 36t29 71.5t19.5 72t11 55.5t3.5 37q0 41 -18 41q-14 0 -64 -49t-84.5 -117t-67.5 -165l-5 -14l-35 -2z" />
    <glyph glyph-name="i" unicode="i" horiz-adv-x="299" 
d="M117 25q-50 -35 -93 -35q-18 0 -29.5 11.5t-11.5 30.5q0 23 12 54l92 242q0 10 -9 10q-14 0 -43 -34l-19 -21l-5 -5l-23 23l6 6q104 116 177 116q40 0 40 -34q0 -19 -17 -62l-85 -209q-10 -24 -10 -34q0 -14 10 -14t22.5 10t23.5 21l26 26l7 7l21 -23l-11 -12
q-28 -30 -46 -46t-35 -28zM256 603q0 -27 -17 -45t-45 -18q-25 0 -40 14t-15 37q0 29 17.5 47.5t45.5 18.5q25 0 39.5 -14.5t14.5 -39.5z" />
    <glyph glyph-name="j" unicode="j" horiz-adv-x="291" 
d="M207 376q0 -13 -2 -25t-7 -30.5t-10 -34.5t-10 -30l-85 -249q-19 -54 -36.5 -84.5t-71.5 -85t-146 -54.5q-58 0 -58 40q0 22 14 41t31 19q22 0 33.5 -29t26.5 -29q9 0 21 12t23 32.5t26 56.5t21 52l83 232l22 72q3 10 5.5 24.5t2.5 18.5q0 11 -8 11q-15 0 -62 -54l-6 -7
l-24 20q101 128 179 128q38 0 38 -47zM258 602q0 -28 -17.5 -45.5t-44.5 -17.5q-25 0 -40.5 14.5t-15.5 37.5q0 29 18 47t46 18q25 0 39.5 -14.5t14.5 -39.5z" />
    <glyph glyph-name="k" unicode="k" horiz-adv-x="447" 
d="M216 -10q-28 0 -36.5 15.5t-12 32t-10.5 48.5l-20 101l-36 -4l-26 -80l-31 -103l-56 -4l-44 -6l-5 5l2 8l184 560q8 27 8 43t-10.5 22t-40.5 6h-12l9 33h18q70 0 104 6t65 21l12 -14l-33 -74l-16 -42q-22 -59 -46 -126.5t-31 -90.5q102 77 179 77q51 0 51 -49
q0 -29 -16 -60.5t-48 -58t-90 -43.5l37 -136q4 -23 19 -23q9 0 21 7t29 21l31 26l18 -25l-5 -4q-52 -47 -90 -68t-72 -21zM221 251q50 32 50 91q0 22 -17 22q-15 0 -48 -18.5t-36 -20.5t-31 -21l-27 -90q26 0 54 9.5t55 27.5z" />
    <glyph glyph-name="l" unicode="l" horiz-adv-x="299" 
d="M-24 34q0 22 8 54l21 74q17 56 31 100t59.5 193t45.5 151q0 18 -16 22.5t-35 4.5h-13l10 34h18q62 0 97.5 6t64.5 20l12 -13q-2 -3 -11.5 -23.5t-19.5 -47.5l-134 -410q-17 -60 -21.5 -79t-4.5 -30q0 -21 15 -21q16 0 53 37l27 27l20 -19q-58 -64 -102 -94t-80 -30
q-45 0 -45 44z" />
    <glyph glyph-name="m" unicode="m" horiz-adv-x="748" 
d="M193 381q0 -27 -10 -65.5t-27 -76.5q63 89 119.5 137t98.5 48q38 0 38 -40q0 -19 -6.5 -45t-25.5 -76l-9 -24q66 89 128.5 137t110.5 48q17 0 27.5 -11.5t10.5 -30.5q0 -32 -51 -148l-59 -133l-6 -22q0 -13 9 -13q17 0 52 36l32 33l20 -19l-6 -6q-59 -64 -101.5 -92
t-79.5 -28q-38 0 -38 39q0 21 11 52.5t42 94.5l34 72q29 60 29 78q0 12 -10 12q-9 0 -32 -17.5t-83.5 -83.5t-121.5 -221l-6 -16l-17 -1l-30 -3l-47 -6l-4 3l2 9l86 213q34 87 34 106q0 13 -10 13q-11 0 -33.5 -20t-48.5 -51.5t-51 -70t-44 -76.5t-43 -99l-7 -17l-17 -1
l-31 -3l-46 -6l-4 3l3 9l26 64l61 157q14 38 22 65.5t8 40.5q0 12 -9 12q-16 0 -44 -35l-24 -28l-4 -5l-21 17q93 134 168 134q35 0 35 -43z" />
    <glyph glyph-name="n" unicode="n" horiz-adv-x="538" 
d="M153 424q43 0 43 -45q0 -22 -17 -74l-23 -67l12 16q65 83 120 126.5t103 43.5q46 0 46 -43q0 -25 -21 -77l-26 -60q-1 -3 -34 -71t-37.5 -80t-4.5 -18q0 -10 12 -10q11 0 28 13.5t51 50.5l5 6l23 -20q-19 -24 -56 -59t-66.5 -50.5t-61.5 -15.5q-46 0 -46 36q0 15 3.5 27
t17.5 44l60 130q40 83 40 103q0 12 -9 12t-24.5 -10.5t-47.5 -41t-59 -68.5t-61 -105t-54 -117l-17 -1l-31 -3l-46 -6l-4 3l3 9l42 104l66 176q12 36 12 50q0 11 -10 11q-12 0 -38 -30l-25 -29l-6 -7l-23 19q24 36 67 82t94 46z" />
    <glyph glyph-name="o" unicode="o" horiz-adv-x="452" 
d="M227 424q61 0 99 -38t38 -98q0 -98 -72 -198t-178 -100q-61 0 -97 37t-36 99q0 48 19 102t73 125t154 71zM215 139q21 50 34 102.5t13 91.5q0 54 -34 54q-26 0 -54 -37t-58.5 -117t-30.5 -152q0 -52 37 -52q46 0 93 110z" />
    <glyph glyph-name="p" unicode="p" horiz-adv-x="487" 
d="M21 365l84 22l30 81l102 11l7 -10l-26 -55q33 9 69 9q120 0 120 -91q0 -76 -57 -162.5t-134 -128.5t-142 -42l-15 -53l-20 -74q-3 -12 -3 -24q0 -18 11.5 -25.5t40.5 -7.5l-9 -32l-71 2q-81 0 -158 -11l10 35h4q12 0 25 8t20.5 16.5t16.5 31.5l30 81l138 401l-66 -18z
M114 46q55 0 95.5 60.5t61.5 119.5t21 103q0 53 -49 53q-14 0 -35 -5l-115 -330z" />
    <glyph glyph-name="q" unicode="q" horiz-adv-x="466" 
d="M399 399l-59 -165l-30 -100l-54 -188q-8 -29 -12 -44.5t-7 -28.5t-3 -25q0 -18 11.5 -25.5t39.5 -7.5l-9 -32l-71 2q-81 0 -158 -11l10 35h4q16 0 31.5 11t22 26t15.5 38t17 46t15 43.5t12 37.5l39 130q-43 -61 -95 -96t-98 -35q-24 0 -37 16t-13 45q0 47 24.5 104.5
t70.5 116.5t102.5 95t106.5 36q22 0 63 -12l49 48h37zM87 116q0 -25 21 -25q11 0 32 17t50.5 51t46.5 68l24 59q8 19 12.5 37t4.5 29q0 30 -32 30q-24 0 -54.5 -29.5t-51.5 -70t-37 -92t-16 -74.5z" />
    <glyph glyph-name="r" unicode="r" horiz-adv-x="372" 
d="M-19 -9l-8 -1q-7 0 -7 7l3 12l75 200q9 26 17.5 51t13 44.5t4.5 29.5q0 15 -10 15q-7 -3 -10.5 -5t-15 -11t-23.5 -23.5t-22 -27.5l-5 -6l-25 19q95 129 163 129q39 0 39 -46q0 -26 -12 -83l10 16q18 26 34.5 44.5t44.5 43t64 24.5q28 0 28 -26q0 -31 -20.5 -60.5
t-42.5 -29.5l-11 2l-12 6q-8 3 -18 3t-18 -6t-29 -35t-47 -91.5t-38.5 -101t-23.5 -84.5l-51 -4z" />
    <glyph glyph-name="s" unicode="s" horiz-adv-x="362" 
d="M278 374q0 -21 -17 -39t-38 -18q-12 0 -21 8.5t-11 22.5l-2 15q0 10 -5 16t-13 6q-13 0 -24 -12t-11 -26q0 -31 36 -96l29 -52q19 -36 19 -71q0 -60 -47 -99t-118 -39q-87 0 -87 58q0 23 15 40t37 17q28 0 35.5 -32t13 -39t18.5 -7q18 0 30.5 15.5t12.5 37.5
q0 17 -8.5 39t-14 32t-33 57t-27.5 81q0 53 48 94t110 41q31 0 52 -14t21 -36z" />
    <glyph glyph-name="t" unicode="t" horiz-adv-x="306" 
d="M20 -10q-44 0 -44 48q0 19 5 38t14 46l28 83l60 172l-63 -2l12 40l61 -2l33 115l32 4q69 10 85 15l7 -12q-12 -20 -28 -57.5t-25 -64.5l94 2l-16 -40l-88 2l-59 -162q-4 -11 -15 -45t-15 -50t-5 -23t-1 -12q0 -6 3 -10t8 -4q15 0 53 35l33 33l21 -23q-13 -16 -25 -28.5
t-60.5 -55t-104.5 -42.5z" />
    <glyph glyph-name="u" unicode="u" horiz-adv-x="546" 
d="M232 388q0 -15 -11.5 -45t-44.5 -101l-34 -74l-16 -38q-9 -21 -9 -30q0 -13 9 -13t26 15.5t57 64.5t76.5 108.5t67.5 129.5l4 9h6q21 0 46.5 2.5t40.5 6.5l6 1l7 -6l-2 -6q-6 -9 -22 -43l-24 -51l-73 -198q-8 -26 -8 -38q0 -13 9 -13q10 0 31.5 21.5t32.5 33.5t23 27
l24 -20l-7 -8q-38 -44 -58.5 -64.5t-53 -44.5t-66.5 -24q-42 0 -42 43q0 17 2.5 27.5t16.5 52.5l25 64l8 21l-45 -56q-32 -40 -58.5 -68t-62.5 -56t-76 -28q-41 0 -41 43q0 13 7 33l25 66l78 174q4 12 6 19.5t2 8.5q0 9 -7 9q-8 0 -31.5 -20.5t-41.5 -44.5l-25 22
q107 125 178 125q45 0 45 -37z" />
    <glyph glyph-name="v" unicode="v" horiz-adv-x="519" 
d="M176 32q47 0 99 90.5t74 170.5q-21 40 -21 71q0 26 21.5 36.5t40 17t23.5 6.5q22 0 22 -38q0 -91 -31 -171.5t-105 -152.5t-172 -72q-43 0 -67 20t-24 56q0 92 150 260h-120q-35 0 -35 -14q0 -5 5 -12l16 -23q6 -8 6 -14q0 -14 -17 -29t-27 -15q-12 0 -23 19t-11 37
q0 33 38.5 79.5t50 52.5t30.5 6h172l8 -19q-63 -88 -101 -172.5t-38 -137.5q0 -25 9.5 -38.5t26.5 -13.5z" />
    <glyph glyph-name="w" unicode="w" horiz-adv-x="774" 
d="M201 256q-49 -98 -49 -161q0 -51 45 -51q40 0 69 27q-3 13 -4 18.5t-1 18.5q0 45 21.5 107t67.5 132t108 70q46 0 46 -62q0 -53 -34.5 -111.5t-115.5 -142.5q16 -66 63 -66q30 0 60.5 32.5t62 93t49.5 133.5l-3 9q-16 43 -16 61q0 24 33 42t47 18q30 0 30 -47
q0 -43 -17 -106t-51 -124.5t-103 -109.5t-143 -48q-33 0 -52 10t-38 37q-72 -46 -130 -46q-47 0 -73.5 22.5t-26.5 64.5q0 92 154 254h-130l-15 -3q-14 0 -14 -14q0 -5 15 -21t15 -27q0 -10 -9 -19q-23 -30 -43 -30q-12 0 -21.5 18.5t-9.5 41.5q0 26 33 73t45 55t46 8h172
l10 -16l-12 -15q-33 -44 -47 -65.5t-34 -60.5zM409 358q-22 0 -41 -58.5t-19 -125.5l1 -22q27 32 48.5 88.5t21.5 93.5q0 24 -11 24z" />
    <glyph glyph-name="x" unicode="x" horiz-adv-x="505" 
d="M155 424q39 0 61 -57l10 -37l10 -45l53 70q62 69 107 69t45 -40q0 -25 -16 -45t-38 -20q-10 0 -24 7t-23 7q-13 0 -26 -10t-34 -37l-36 -44l13 -60l18 -77q10 -38 29 -38q12 0 30 17t47 54l23 -21l-6 -7q-42 -55 -81.5 -87.5t-65.5 -32.5q-43 0 -58 52q-18 61 -22 96
l-28 -35l-38 -44q-21 -24 -50.5 -46.5t-61.5 -22.5q-23 0 -36 12t-13 32q0 24 14.5 42.5t34.5 18.5q15 0 27 -15q12 -12 21 -12q17 1 43 23q35 34 79 93q-4 31 -26 120q-13 41 -29 41q-19 0 -41 -31l-25 -34l-25 16q12 21 26 40t45.5 53.5t66.5 34.5z" />
    <glyph glyph-name="y" unicode="y" horiz-adv-x="478" 
d="M132 424q51 0 73 -84.5t22 -171.5q0 -43 -4 -73.5t-15 -68.5l44 62q26 43 48 94q17 47 17 88q0 34 -12 49l-15 20q-13 16 -13 33q0 21 15 36t37 15q26 0 41.5 -22.5t15.5 -59.5q0 -72 -42.5 -165t-122 -188.5t-171.5 -150.5t-179 -55q-34 0 -53.5 13t-19.5 36t18 41
t43 18q24 0 38 -22l9 -12q11 -19 41 -19q32 0 73 28t76 87.5t35 195.5q0 35 -5 77t-13 78.5t-24 36.5q-24 0 -64 -80l-28 14q8 20 22 44.5t43.5 65t69.5 40.5z" />
    <glyph glyph-name="z" unicode="z" horiz-adv-x="424" 
d="M64 417l13 -1l106 -3h67l123 3l8 1l1 -24l-302 -342h46h55q72 0 104.5 18t67.5 76l29 -16q-19 -29 -40.5 -69.5t-28.5 -59.5l-37 2l-168 3l-159 -4l-14 -1v26l305 341l-36 2q-74 0 -107.5 -18t-50.5 -67l-33 12l26 58q9 21 15.5 36.5t9.5 26.5z" />
    <glyph glyph-name="braceleft" unicode="{" 
d="M153 333q18 12 27 30.5t21.5 68t21 79.5t20 64t28.5 61t40.5 43t46.5 21t69 5l42 1l18 1l-6 -24q-70 0 -104 -24t-51 -86l-32 -112q-13 -48 -19.5 -65.5t-16 -32t-24.5 -28.5t-30 -19l-33 -10l-10 -4l8 -3q20 -7 26.5 -10.5t17 -16.5t10.5 -38q0 -16 -9 -48l-33 -118
q-13 -50 -19 -75t-6 -36q0 -44 27.5 -53.5t70.5 -9.5l-6 -24h-16l-46 1q-37 0 -53 3t-40.5 16.5t-24.5 59.5q0 15 2 26.5t7 32.5l19 62l42 140q4 18 5 23.5t1 11.5q0 32 -22 38.5t-27 7.5t-23 1l5 19q47 0 76 21z" />
    <glyph glyph-name="bar" unicode="|" 
d="M264 -167h-73v833h73v-833z" />
    <glyph glyph-name="braceright" unicode="}" 
d="M250 213l-38 -142q-13 -48 -19.5 -69.5t-26 -59t-65.5 -57.5q-17 -6 -38.5 -10t-54.5 -4l-48 -1h-15l7 24q69 0 103 24t52 87l53 181q8 29 18 46.5t26 33t25 20t40 13.5l11 3l-8 4q-25 9 -29.5 11.5t-15 14.5t-10.5 37q0 18 4 33l49 171q6 24 6 47q0 46 -25.5 52.5
t-40.5 8.5t-32 2l7 24l18 -1l42 -1q56 0 86 -13t30 -63q0 -21 -8 -57t-16 -64l-34 -112q-7 -26 -7 -40q0 -21 18 -32.5t55 -11.5l-6 -19q-51 0 -76.5 -18.5t-36.5 -61.5z" />
    <glyph glyph-name="asciitilde" unicode="~" horiz-adv-x="667" 
d="M390 281q-18 0 -33 4.5t-52.5 16.5t-53 16t-32.5 4q-23 0 -38 -8.5t-39 -34.5l-8 -10l-18 11q58 103 136 103q15 0 33 -4t49.5 -15.5t49.5 -15.5t32 -4q51 0 91 50l18 -11q-26 -47 -62 -74.5t-73 -27.5z" />
    <glyph glyph-name="asciitilde" unicode="&#x2dc;" horiz-adv-x="667" 
d="M390 281q-18 0 -33 4.5t-52.5 16.5t-53 16t-32.5 4q-23 0 -38 -8.5t-39 -34.5l-8 -10l-18 11q58 103 136 103q15 0 33 -4t49.5 -15.5t49.5 -15.5t32 -4q51 0 91 50l18 -11q-26 -47 -62 -74.5t-73 -27.5z" />
    <glyph glyph-name="nonbreakingspace" unicode="&#xa0;" horiz-adv-x="250" 
 />
    <glyph glyph-name="exclamdown" unicode="&#xa1;" horiz-adv-x="211" 
d="M-84 -267q-23 0 -37 15t-14 39q0 29 14 60l45 99q29 60 49.5 114.5t54.5 160.5l4 11l39 -13q-24 -77 -41 -162.5t-34.5 -204.5t-79.5 -119zM23 353q0 31 18 51t47 20q26 0 42 -16t16 -43q0 -32 -18 -52t-47 -20q-26 0 -42 16.5t-16 43.5z" />
    <glyph glyph-name="cent" unicode="&#xa2;" horiz-adv-x="520" 
d="M138 0l35 121l-16 -1q-98 0 -98 102q0 106 70 202t167 122l35 121h33l-33 -115l18 1q27 0 43.5 -11.5t16.5 -30.5q0 -24 -19.5 -44.5t-43.5 -20.5q-28 0 -31 30l-1 14v4l-90 -313q16 3 34 14t26 17.5t41 37.5l6 5l19 -23q-32 -35 -69.5 -62.5t-70.5 -40.5l-38 -129h-34z
M192 185l93 323q-42 -23 -79 -106.5t-37 -154.5q0 -45 23 -62z" />
    <glyph glyph-name="sterling" unicode="&#xa3;" horiz-adv-x="520" 
d="M199 13l-56 37l-7 4q-65 -67 -123 -67q-37 0 -61.5 24.5t-24.5 61.5q0 42 30 68t79 26q39 0 76 -15q14 49 20 89l13 84h-19l-68 -2l12 42l74 -2h7l17 104q16 97 77 152t152 55q53 0 93 -22t40 -51q0 -21 -17 -40t-36 -19q-23 0 -35 28l-14 26q-17 36 -43 36
q-39 0 -62.5 -42.5t-37.5 -102.5l-21 -110l-3 -14l138 2l-13 -42h-128l-2 -12q-6 -37 -12.5 -60.5t-15 -54t-36.5 -72.5q28 -18 68.5 -31t67.5 -13q23 0 36.5 10.5t43.5 51.5l6 10l30 -22q-90 -143 -165 -143q-22 0 -37.5 5t-42.5 21zM-28 76q0 -17 11.5 -27.5t30.5 -10.5
q37 0 68 47q-37 29 -69 29q-41 0 -41 -38z" />
    <glyph glyph-name="currency" unicode="&#xa4;" horiz-adv-x="667" 
d="M66 276q0 50 24 101t78 115l-67 94l49 38l68 -94q85 50 168 50q36 0 64 -10.5t68 -40.5l125 96l27 -38l-125 -98q15 -50 15 -82q0 -72 -31 -120.5t-70 -91.5l69 -97l-49 -39l-68 96q-53 -28 -89 -39t-76 -11t-68.5 10t-65.5 39l-122 -95l-27 38l120 94q-17 51 -17 85z
M361 499q-80 0 -145 -62t-65 -138q0 -51 32.5 -82.5t85.5 -31.5q80 0 144.5 62.5t64.5 138.5q0 51 -32 82t-85 31z" />
    <glyph glyph-name="yen" unicode="&#xa5;" horiz-adv-x="576" 
d="M482 231h-193l-37 -132q-5 -18 -8 -30.5t-3 -18.5q0 -31 53 -31h30l-6 -19h-284l6 19h32q41 0 56.5 14.5t29.5 65.5l38 132h-192l10 33h191l3 10l-29 100h-134l10 33h118l-31 158q-10 51 -23.5 66.5t-49.5 15.5l5 20h243l-5 -20q-29 0 -40.5 -1t-24 -5.5t-12.5 -21.5
l1 -15q1 -5 21.5 -98.5t41.5 -186.5l190 234q39 49 39 69q0 14 -13 19.5t-47 5.5l6 20h177l-6 -20q-21 0 -33.5 -5.5t-34.5 -26t-56 -63.5l-114 -145h125l-9 -33h-141l-76 -86l-7 -24h192z" />
    <glyph glyph-name="brokenbar" unicode="&#xa6;" 
d="M264 324h-73v342h73v-342zM264 -167h-73v320h73v-320z" />
    <glyph glyph-name="section" unicode="&#xa7;" horiz-adv-x="477" 
d="M50 -197q-76 0 -103 27t-27 56q0 26 15.5 45.5t37.5 19.5q16 0 24.5 -7t31 -46.5t66.5 -39.5q29 0 49 22t20 54q0 56 -59 178l-35 70q-26 55 -26 102q0 84 127 170q-4 23 -4 35q0 67 69 129t145 62q36 0 61 -16t25 -40q0 -23 -16 -43t-36 -20q-18 0 -37.5 18.5t-32 25.5
t-26.5 7q-23 0 -42 -20t-19 -46q0 -53 47 -147l31 -64q40 -84 40 -124q0 -82 -124 -169q5 -20 6 -29t1 -23q0 -77 -61 -132t-148 -55zM266 223l-33 67q-19 36 -30 62.5t-22 57.5q-45 -31 -45 -76q0 -31 30 -92l35 -74l39 -85q46 26 46 67q0 30 -20 73z" />
    <glyph glyph-name="dieresis" unicode="&#xa8;" horiz-adv-x="380" 
d="M403 575q0 -26 -15 -42t-41 -16q-49 0 -49 46q0 27 15 44t41 17q23 0 36 -13t13 -36zM566 575q0 -26 -15 -42t-40 -16q-49 0 -49 46q0 27 15 44t40 17q23 0 36 -13t13 -36z" />
    <glyph glyph-name="copyright" unicode="&#xa9;" horiz-adv-x="804" 
d="M380 680q144 0 245 -101t101 -245t-101.5 -245.5t-244.5 -101.5q-144 0 -245.5 101.5t-101.5 245.5t101 245t246 101zM380 644q-129 0 -220 -91t-91 -219q0 -129 91 -220t220 -91q128 0 219 91t91 220q0 128 -91 219t-219 91zM483 225l-26 -65l-6 -19l-49 -5
q-36 -5 -46 -6t-26 -1q-75 0 -118 43t-43 119q0 47 17 91.5t69 104t164 59.5q22 0 52 -5l18 -4l12 -2l61 -9l-17 -48q-13 -35 -18 -61h-22q5 23 5 37q0 66 -81 66q-38 0 -72.5 -18t-60 -53t-41.5 -81t-16 -88q0 -58 29 -91t80 -33q80 0 120 91h24z" />
    <glyph glyph-name="ordfeminine" unicode="&#xaa;" horiz-adv-x="326" 
d="M-2 299l10 34h285l-9 -34h-286zM193 395q-24 0 -24 31q0 24 9 54q-40 -45 -70 -65t-59 -20q-31 0 -31 40q0 73 48 132.5t83 78.5t79 19l13 -1l7 15l63 8l4 -3q-2 -5 -4 -9l-21 -48q-13 -35 -24.5 -67t-17 -50t-8.5 -33t-3 -21q0 -12 7 -12t15 8l14 12l20 20l13 -13l-4 -6
q-66 -70 -109 -70zM91 461q0 -12 10 -12q5 0 19 8.5t33 27t41 64.5t26.5 58.5t4.5 19.5q0 13 -19 13q-37 0 -76 -69.5t-39 -109.5z" />
    <glyph glyph-name="guillemotleft" unicode="&#xab;" horiz-adv-x="355" 
d="M293 116l-26 -13l-129 144l4 11l182 135l21 -24l-98 -120zM119 116l-25 -13l-129 144l3 11l183 135l21 -24l-98 -120z" />
    <glyph glyph-name="logicalnot" unicode="&#xac;" 
d="M10 214v53h434v-267h-123v214h-311z" />
    <glyph glyph-name="registered" unicode="&#xae;" horiz-adv-x="804" 
d="M380 680q144 0 245 -101t101 -245t-101.5 -245.5t-244.5 -101.5q-144 0 -245.5 101.5t-101.5 245.5t101 245t246 101zM380 644q-129 0 -220 -91t-91 -219q0 -129 91 -220t220 -91q128 0 219 91t91 220q0 128 -91 219t-219 91zM507 200q13 -22 25 -30t32 -8l-6 -22h-9
l-47 1l-42 -1q-9 12 -13.5 20.5t-10 21t-7.5 16.5l-23 56l-18 40q-7 18 -15 25t-22 7h-8l-24 -84q-7 -25 -9 -35t-2 -21q0 -24 30 -24h8l-6 -22h-12l-63 2l-73 -2h-16l7 22h4q25 0 36 14t26 66l57 196q7 25 9 35t2 20q0 25 -30 25h-10l6 22l79 -2h32l39 2h14q99 0 99 -82
q0 -47 -30.5 -81t-79.5 -42q11 -14 15 -20.5t12 -24.5zM433 362q20 12 33 36.5t13 51.5q0 63 -64 63l-18 -1l-47 -165l21 -1q38 0 62 16z" />
    <glyph glyph-name="degree" unicode="&#xb0;" horiz-adv-x="423" 
d="M282 539q0 -37 -27.5 -62.5t-66.5 -25.5t-66 26t-27 65q0 37 27 65t63 28q19 0 40 -9.5t39 -30t18 -56.5zM188 481q24 0 43 18t19 42q0 27 -19.5 44.5t-50.5 17.5q-20 0 -36.5 -17.5t-16.5 -38.5q0 -28 17 -47t44 -19z" />
    <glyph glyph-name="plusminus" unicode="&#xb1;" 
d="M198 581h58v-195h205v-57h-205v-191h-58v191h-204v57h204v195zM461 39h-467v56h467v-56z" />
    <glyph glyph-name="twosuperior" unicode="&#xb2;" horiz-adv-x="344" 
d="M157 269l-72 -1l-59 -2l-9 22l11 10l126 120q85 86 85 144q0 19 -14 32t-35 13q-42 0 -77 -50l-24 15q45 84 134 84q45 0 74 -24t29 -61q0 -60 -51.5 -108t-78 -70t-85.5 -65h47q71 0 90 5.5t30 33.5l3 7l27 -10l-44 -98z" />
    <glyph glyph-name="threesuperior" unicode="&#xb3;" horiz-adv-x="344" 
d="M195 614q-12 0 -24.5 -4t-39.5 -25l-18 20q51 53 111 53q42 0 68 -22t26 -59q0 -38 -19 -56.5t-28.5 -23.5t-31.5 -13q59 -20 59 -77q0 -62 -49 -104t-122 -42q-42 0 -67.5 13.5t-25.5 35.5q0 13 10.5 22.5t24.5 9.5q22 0 37 -25l8 -15q9 -13 24 -13q30 0 54 35t24 79
q0 61 -67 61h-13l8 29q46 0 71 20.5t25 54.5q0 20 -12 33t-33 13z" />
    <glyph glyph-name="acute" unicode="&#xb4;" horiz-adv-x="528" 
d="M436 640l6 -6q-2 -5 -5 -7l-197 -176l-18 17l123 172h91z" />
    <glyph glyph-name="mu" unicode="&#xb5;" horiz-adv-x="552" 
d="M485 45q7 0 11.5 1t18.5 7v-18l-101 -45l-5 -1q-9 0 -19.5 6t-16.5 16t-9 19t-9 37l-28 -28t-41 -34.5t-71 -19.5q-43 0 -69 20.5t-42 66.5v-24q0 -38 8 -77l7 -33l6 -28q8 -30 8 -51t-14 -36t-35 -15q-22 0 -35.5 14.5t-13.5 36.5q0 24 10.5 79t19.5 153l7 172v195h97
v-287q0 -34 5 -59.5t14 -41.5q21 -32 56 -32q31 0 54.5 15.5t50.5 53.5v351h97v-334q0 -49 7.5 -64t31.5 -15z" />
    <glyph glyph-name="paragraph" unicode="&#xb6;" horiz-adv-x="586" 
d="M590 640q-41 0 -53.5 -11.5t-27.5 -63.5l-163 -568q-10 -33 -10 -42q0 -11 8 -14t35 -3h20l-8 -27h-126l209 727h-84l-209 -727h-140l8 27h21q40 0 53.5 7t20.5 32l106 371h-41q-35 0 -52.5 3t-52.5 23t-35 85q0 43 22 86.5t56.5 71.5t72 39t95.5 11h300l-8 -27h-17z
M218 610q-26 -25 -46 -72t-20 -83q0 -76 71 -76h36l75 261h-30q-56 0 -86 -30z" />
    <glyph glyph-name="periodcentered" unicode="&#xb7;" horiz-adv-x="168" 
d="M128 327q0 -30 -18 -50t-47 -20q-26 0 -42 16t-16 43q0 31 18 51t47 20q26 0 42 -16.5t16 -43.5z" />
    <glyph glyph-name="periodcentered" unicode="&#x2219;" horiz-adv-x="168" 
d="M128 327q0 -30 -18 -50t-47 -20q-26 0 -42 16t-16 43q0 31 18 51t47 20q26 0 42 -16.5t16 -43.5z" />
    <glyph glyph-name="cedilla" unicode="&#xb8;" horiz-adv-x="272" 
d="M167 8l-28 -53q66 0 66 -53q0 -52 -44.5 -76.5t-82.5 -24.5q-31 0 -50.5 9t-19.5 24q0 10 9 20t18 10q7 0 10.5 -1.5t16.5 -13t26 -11.5q14 0 25 14.5t11 34.5q0 25 -22 25q-14 0 -24 -10l-17 17l74 89h32z" />
    <glyph glyph-name="onesuperior" unicode="&#xb9;" horiz-adv-x="344" 
d="M121 605l140 58l19 -18q-5 -11 -10.5 -27t-10.5 -32l-62 -216q-11 -43 -11 -53q0 -22 29 -22h15l-8 -29l-83 3l-32 1q-31 0 -62 -4l8 29h9q24 0 34.5 13t24.5 62l66 229l-52 -21z" />
    <glyph glyph-name="ordmasculine" unicode="&#xba;" horiz-adv-x="327" 
d="M-10 299l10 34h285l-9 -34h-286zM236 677q39 0 64 -24t25 -64q0 -63 -47 -128.5t-116 -65.5q-39 0 -62.5 24.5t-23.5 64.5q0 32 12 66.5t47.5 80.5t100.5 46zM228 492q14 34 22 66.5t8 59.5q0 35 -22 35q-35 0 -64 -76t-29 -123q0 -33 25 -33q30 0 60 71z" />
    <glyph glyph-name="guillemotright" unicode="&#xbb;" horiz-adv-x="355" 
d="M-16 379l26 14l128 -145l-3 -10l-182 -135l-21 23l97 120zM157 379l26 14l129 -145l-3 -10l-183 -135l-21 23l98 120z" />
    <glyph glyph-name="onequarter" unicode="&#xbc;" horiz-adv-x="861" 
d="M121 605l140 58l19 -18q-7 -16 -11.5 -28t-9.5 -31l-62 -216q-11 -43 -11 -53q0 -22 29 -22h15l-8 -28l-83 3h-32q-31 0 -62 -4l8 29h9q24 0 34.5 13t24.5 62l66 229l-52 -21zM656 647l-453 -647h-55l452 647h56zM776 397l-68 -239h44l-17 -57h-39l-29 -101h-76l29 101
h-160l23 55l220 228zM680 311l-144 -153h101z" />
    <glyph glyph-name="onehalf" unicode="&#xbd;" horiz-adv-x="862" 
d="M122 605l140 58l19 -18q-7 -16 -11.5 -28t-9.5 -31l-62 -215q-11 -44 -11 -54q0 -22 29 -22h15l-8 -28l-83 3h-32q-31 0 -62 -4l8 29h9q25 0 35 13t24 63l66 228l-52 -21zM657 647l-453 -647h-55l452 647h56zM599 3l-72 -1l-59 -2l-9 22l11 10l126 120q85 86 85 144
q0 20 -14.5 32.5t-35.5 12.5q-41 0 -76 -50l-24 15q44 84 134 84q45 0 74 -24t29 -61q0 -60 -51.5 -108t-78 -70t-85.5 -65h47q71 0 90 5.5t30 33.5l3 7l27 -10l-44 -98z" />
    <glyph glyph-name="threequarters" unicode="&#xbe;" horiz-adv-x="861" 
d="M194 614q-12 0 -24.5 -4t-39.5 -25l-18 20q50 52 111 52q42 0 68 -22t26 -58q0 -38 -21 -59t-58 -34q59 -20 59 -77q0 -62 -49 -104t-122 -42q-42 0 -67.5 13t-25.5 35q0 14 10 23t25 9q23 0 37 -25l8 -14q9 -13 24 -13q30 0 54 35t24 79q0 61 -67 61h-13l8 29
q47 0 71.5 20t24.5 55q0 20 -12 33t-33 13zM656 647l-453 -647h-55l452 647h56zM776 397l-68 -239h44l-17 -57h-39l-29 -101h-76l29 101h-160l23 55l220 228zM680 311l-144 -153h100z" />
    <glyph glyph-name="questiondown" unicode="&#xbf;" horiz-adv-x="353" 
d="M91 -64q-61 -19 -95.5 -36t-34.5 -49q0 -19 12 -32t30 -13q19 0 39 9l20 8q14 6 29 6q18 0 30.5 -13.5t12.5 -31.5q0 -23 -19 -37t-50 -14q-58 0 -107 50t-49 111q0 73 36.5 93.5t54.5 28t45.5 15.5t49 14.5t48.5 18t27 37.5q0 35 -42 35l-23 -1l-27 -3q-20 0 -33 13
t-13 33q0 42 46 42q51 0 95 -51t44 -110q0 -58 -30.5 -81t-95.5 -42zM91 353q0 31 18.5 50.5t47.5 19.5q26 0 41.5 -15.5t15.5 -43.5q0 -31 -18 -51t-47 -20q-26 0 -42 16.5t-16 43.5z" />
    <glyph glyph-name="Agrave" unicode="&#xc0;" horiz-adv-x="744" 
d="M627 672l-35 -170l-60 -358q-8 -53 -8 -65q0 -23 14.5 -32.5t51.5 -9.5l-10 -37l-12 1l-75 3h-50q-82 0 -127 -4l10 37h7q43 0 64 31q5 10 9.5 24.5t10.5 42.5l26 136h-193l-97 -121l-37 -51q-15 -23 -15 -38q0 -24 41 -24h10l-10 -37q-18 0 -63.5 2t-60.5 2l-120 -3
l-7 -1l11 37q29 0 65 21.5t65 48t65 70.5l406 478q31 4 59.5 11t52.5 17zM499 575l-209 -256h161zM556 719l-94 171l-3 9q0 9 14 9h68l39 -181z" />
    <glyph glyph-name="Aacute" unicode="&#xc1;" horiz-adv-x="744" 
d="M627 672l-35 -170l-60 -358q-8 -53 -8 -65q0 -23 14.5 -32.5t51.5 -9.5l-10 -37l-12 1l-75 3h-50q-82 0 -127 -4l10 37h7q43 0 64 31q5 10 9.5 24.5t10.5 42.5l26 136h-193l-97 -121l-37 -51q-15 -23 -15 -38q0 -24 41 -24h10l-10 -37q-18 0 -63.5 2t-60.5 2l-120 -3
l-7 -1l11 37q29 0 65 21.5t65 48t65 70.5l406 478q31 4 59.5 11t52.5 17zM499 575l-209 -256h161zM724 904l6 -6q-2 -5 -5 -7l-197 -176l-18 17l123 172h91z" />
    <glyph glyph-name="Acircumflex" unicode="&#xc2;" horiz-adv-x="744" 
d="M627 672l-35 -170l-60 -358q-8 -53 -8 -65q0 -23 14.5 -32.5t51.5 -9.5l-10 -37l-12 1l-75 3h-50q-82 0 -127 -4l10 37h7q43 0 64 31q5 10 9.5 24.5t10.5 42.5l26 136h-193l-97 -121l-37 -51q-15 -23 -15 -38q0 -24 41 -24h10l-10 -37q-18 0 -63.5 2t-60.5 2l-120 -3
l-7 -1l11 37q29 0 65 21.5t65 48t65 70.5l406 478q31 4 59.5 11t52.5 17zM499 575l-209 -256h161zM648 903l27 -184l-28 -6l-55 99l-121 -99l-20 21l141 169h56z" />
    <glyph glyph-name="Atilde" unicode="&#xc3;" horiz-adv-x="744" 
d="M627 672l-35 -170l-60 -358q-8 -53 -8 -65q0 -23 14.5 -32.5t51.5 -9.5l-10 -37l-12 1l-75 3h-50q-82 0 -127 -4l10 37h7q43 0 64 31q5 10 9.5 24.5t10.5 42.5l26 136h-193l-97 -121l-37 -51q-15 -23 -15 -38q0 -24 41 -24h10l-10 -37q-18 0 -63.5 2t-60.5 2l-120 -3
l-7 -1l11 37q29 0 65 21.5t65 48t65 70.5l406 478q31 4 59.5 11t52.5 17zM499 575l-209 -256h161zM517 837q16 0 47 -9l52 -17q12 -3 20 -4.5t13 -1.5q18 0 37 27l4 6l31 -17q-33 -51 -52.5 -68.5t-45.5 -17.5q-12 0 -20.5 2t-37.5 13q-54 18 -69 18q-20 0 -38 -25l-5 -7
l-29 19l13 18q25 37 41.5 50.5t38.5 13.5z" />
    <glyph glyph-name="Adieresis" unicode="&#xc4;" horiz-adv-x="744" 
d="M627 672l-35 -170l-60 -358q-8 -53 -8 -65q0 -23 14.5 -32.5t51.5 -9.5l-10 -37l-12 1l-75 3h-50q-82 0 -127 -4l10 37h7q43 0 64 31q5 10 9.5 24.5t10.5 42.5l26 136h-193l-97 -121l-37 -51q-15 -23 -15 -38q0 -24 41 -24h10l-10 -37q-18 0 -63.5 2t-60.5 2l-120 -3
l-7 -1l11 37q29 0 65 21.5t65 48t65 70.5l406 478q31 4 59.5 11t52.5 17zM499 575l-209 -256h161zM555 778q0 -26 -15 -42t-41 -16q-49 0 -49 46q0 27 15 44t41 17q23 0 36 -13t13 -36zM718 778q0 -26 -15 -42t-40 -16q-49 0 -49 46q0 27 15 44t40 17q23 0 36 -13t13 -36z
" />
    <glyph glyph-name="Aring" unicode="&#xc5;" horiz-adv-x="744" 
d="M627 672l-35 -170l-60 -358q-8 -53 -8 -65q0 -23 14.5 -32.5t51.5 -9.5l-10 -37l-12 1l-75 3h-50q-82 0 -127 -4l10 37h7q43 0 64 31q5 10 9.5 24.5t10.5 42.5l26 136h-193l-97 -121l-37 -51q-15 -23 -15 -38q0 -24 41 -24h10l-10 -37q-18 0 -63.5 2t-60.5 2l-120 -3
l-7 -1l11 37q29 0 65 21.5t65 48t65 70.5l406 478q31 4 59.5 11t52.5 17zM499 575l-209 -256h161zM586 731q-35 0 -59 24t-24 59q0 34 24 59t59 25t59.5 -24.5t24.5 -59.5t-24 -59t-60 -24zM586 766q20 0 34.5 13.5t14.5 34.5t-14 35t-35 14q-20 0 -34 -14t-14 -35
q0 -20 14 -34t34 -14z" />
    <glyph glyph-name="AE" unicode="&#xc6;" horiz-adv-x="887" 
d="M-48 59q22 14 50.5 41.5t49.5 56.5l292 389q19 25 25 35t6 21q0 16 -13 22t-47 6h-10l11 37l10 -1l88 -3h130h133l142 3l25 1q-5 -28 -10 -62.5t-5 -86.5v-9h-39v10q0 71 -30 83.5t-60.5 15.5t-89.5 3h-11l-72 -250h73q69 0 94.5 15.5t44.5 69.5h36q-29 -82 -61 -211
l-3 -14h-37q9 35 9 50q0 22 -16 34t-79 12h-73l-49 -170q-7 -24 -10.5 -42.5t-3.5 -28.5q0 -23 19.5 -32.5t66.5 -9.5q97 0 142 26t78 102l39 -15q-12 -20 -19 -35t-14 -31l-41 -91l-19 1l-159 2l-106 1l-116 -1l-78 -2l-14 -1l10 37h8q42 0 61 24.5t44 110.5l44 155h-152
l-127 -179l-28 -44q-12 -23 -12 -34q0 -33 56 -33l-10 -37l-134 5l-116 -4l-10 -1l10 37q24 0 40.5 5t36.5 17zM483 621h-25l-179 -250h132z" />
    <glyph glyph-name="Ccedilla" unicode="&#xc7;" horiz-adv-x="699" 
d="M347 -98q0 -52 -45 -76.5t-82 -24.5q-31 0 -50.5 9t-19.5 24q0 10 9 20t18 10q8 0 14 -4t16 -13t23 -9q15 0 26 14t11 35q0 25 -23 25q-13 0 -24 -10l-16 17l56 68q-109 0 -175 75t-66 194q0 77 29 153.5t114 173.5t273 97q30 0 45 -1t43 -7l50 -10q41 -8 58.5 -11
t42.5 -3q-4 -10 -13.5 -36t-19 -54.5t-14.5 -46t-11 -45.5h-37q8 39 8 61q0 53 -35 82t-100 29q-62 0 -120.5 -31t-100.5 -88.5t-69 -135t-27 -145.5q0 -97 49 -153t134 -56q133 0 199 154h41q-7 -14 -16 -38l-43 -108l-10 -32l-81 -8q-37 -5 -63 -8t-45 -3l-18 -31
q65 0 65 -53z" />
    <glyph glyph-name="Egrave" unicode="&#xc8;" horiz-adv-x="610" 
d="M552 509h-38l-1 10q0 69 -31 87t-148 18h-11l-72 -253h72q69 0 94.5 15.5t44.5 69.5h36l-61 -211l-3 -14h-37q9 36 9 51q0 23 -16 34.5t-79 11.5h-73l-49 -171q-7 -24 -10.5 -42.5t-3.5 -28.5q0 -23 19.5 -32.5t66.5 -9.5q98 0 144.5 27.5t75.5 102.5l39 -17
q-9 -16 -34.5 -72t-39.5 -85l-19 1l-158 3l-222 -1l-78 -2l-15 -1l11 37h7q42 0 60.5 24t43.5 109l94 327q9 30 14 51.5t5 40.5q0 41 -50 41h-14l10 37l124 -4l65 1l218 2l25 1q-8 -47 -11.5 -80t-3.5 -69v-9zM389 721l-94 171l-3 9q0 9 14 9h68l39 -181z" />
    <glyph glyph-name="Eacute" unicode="&#xc9;" horiz-adv-x="610" 
d="M552 509h-38l-1 10q0 69 -31 87t-148 18h-11l-72 -253h72q69 0 94.5 15.5t44.5 69.5h36l-61 -211l-3 -14h-37q9 36 9 51q0 23 -16 34.5t-79 11.5h-73l-49 -171q-7 -24 -10.5 -42.5t-3.5 -28.5q0 -23 19.5 -32.5t66.5 -9.5q98 0 144.5 27.5t75.5 102.5l39 -17
q-9 -16 -34.5 -72t-39.5 -85l-19 1l-158 3l-222 -1l-78 -2l-15 -1l11 37h7q42 0 60.5 24t43.5 109l94 327q9 30 14 51.5t5 40.5q0 41 -50 41h-14l10 37l124 -4l65 1l218 2l25 1q-8 -47 -11.5 -80t-3.5 -69v-9zM510 888l6 -6q-2 -5 -5 -7l-197 -176l-18 17l123 172h91z" />
    <glyph glyph-name="Ecircumflex" unicode="&#xca;" horiz-adv-x="610" 
d="M552 509h-38l-1 10q0 69 -31 87t-148 18h-11l-72 -253h72q69 0 94.5 15.5t44.5 69.5h36l-61 -211l-3 -14h-37q9 36 9 51q0 23 -16 34.5t-79 11.5h-73l-49 -171q-7 -24 -10.5 -42.5t-3.5 -28.5q0 -23 19.5 -32.5t66.5 -9.5q98 0 144.5 27.5t75.5 102.5l39 -17
q-9 -16 -34.5 -72t-39.5 -85l-19 1l-158 3l-222 -1l-78 -2l-15 -1l11 37h7q42 0 60.5 24t43.5 109l94 327q9 30 14 51.5t5 40.5q0 41 -50 41h-14l10 37l124 -4l65 1l218 2l25 1q-8 -47 -11.5 -80t-3.5 -69v-9zM448 885l27 -184l-28 -6l-55 99l-121 -99l-20 21l141 169h56z
" />
    <glyph glyph-name="Edieresis" unicode="&#xcb;" horiz-adv-x="610" 
d="M552 509h-38l-1 10q0 69 -31 87t-148 18h-11l-72 -253h72q69 0 94.5 15.5t44.5 69.5h36l-61 -211l-3 -14h-37q9 36 9 51q0 23 -16 34.5t-79 11.5h-73l-49 -171q-7 -24 -10.5 -42.5t-3.5 -28.5q0 -23 19.5 -32.5t66.5 -9.5q98 0 144.5 27.5t75.5 102.5l39 -17
q-9 -16 -34.5 -72t-39.5 -85l-19 1l-158 3l-222 -1l-78 -2l-15 -1l11 37h7q42 0 60.5 24t43.5 109l94 327q9 30 14 51.5t5 40.5q0 41 -50 41h-14l10 37l124 -4l65 1l218 2l25 1q-8 -47 -11.5 -80t-3.5 -69v-9zM341 778q0 -26 -15 -42t-41 -16q-49 0 -49 46q0 27 15 44t41 17
q23 0 36 -13t13 -36zM504 778q0 -26 -15 -42t-40 -16q-49 0 -49 46q0 27 15 44t40 17q23 0 36 -13t13 -36z" />
    <glyph glyph-name="Igrave" unicode="&#xcc;" horiz-adv-x="418" 
d="M276 663l122 3l18 1l-11 -37h-10q-39 0 -52.5 -14.5t-19.5 -26t-12 -28.5l-20 -64l-93 -327q-9 -32 -14 -55.5t-5 -36.5q0 -41 50 -41h14l-11 -37l-24 1l-118 3l-102 -2l-34 -2l11 37h12q42 0 60.5 24t43.5 109l94 327q11 40 15 59t4 33q0 41 -50 41h-9l10 37zM313 720
l-94 171l-3 9q0 9 14 9h68l39 -181z" />
    <glyph glyph-name="Iacute" unicode="&#xcd;" horiz-adv-x="418" 
d="M276 663l122 3l18 1l-11 -37h-10q-39 0 -52.5 -14.5t-19.5 -26t-12 -28.5l-20 -64l-93 -327q-9 -32 -14 -55.5t-5 -36.5q0 -41 50 -41h14l-11 -37l-24 1l-118 3l-102 -2l-34 -2l11 37h12q42 0 60.5 24t43.5 109l94 327q11 40 15 59t4 33q0 41 -50 41h-9l10 37zM381 909
l6 -6q-2 -5 -5 -7l-197 -176l-18 17l123 172h91z" />
    <glyph glyph-name="Icircumflex" unicode="&#xce;" horiz-adv-x="418" 
d="M276 663l122 3l18 1l-11 -37h-10q-39 0 -52.5 -14.5t-19.5 -26t-12 -28.5l-20 -64l-93 -327q-9 -32 -14 -55.5t-5 -36.5q0 -41 50 -41h14l-11 -37l-24 1l-118 3l-102 -2l-34 -2l11 37h12q42 0 60.5 24t43.5 109l94 327q11 40 15 59t4 33q0 41 -50 41h-9l10 37zM368 909
l27 -184l-28 -6l-55 99l-121 -99l-20 21l141 169h56z" />
    <glyph glyph-name="Idieresis" unicode="&#xcf;" horiz-adv-x="418" 
d="M276 663l122 3l18 1l-11 -37h-10q-39 0 -52.5 -14.5t-19.5 -26t-12 -28.5l-20 -64l-93 -327q-9 -32 -14 -55.5t-5 -36.5q0 -41 50 -41h14l-11 -37l-24 1l-118 3l-102 -2l-34 -2l11 37h12q42 0 60.5 24t43.5 109l94 327q11 40 15 59t4 33q0 41 -50 41h-9l10 37zM285 778
q0 -26 -15 -42t-41 -16q-49 0 -49 46q0 27 15 44t41 17q23 0 36 -13t13 -36zM448 778q0 -26 -15 -42t-40 -16q-49 0 -49 46q0 27 15 44t40 17q23 0 36 -13t13 -36z" />
    <glyph glyph-name="Eth" unicode="&#xd0;" horiz-adv-x="722" 
d="M603 617q70 -59 70 -170q0 -83 -38.5 -173t-101.5 -153t-136.5 -92t-174.5 -29h-322l6 19h23q42 0 58 14.5t31 65.5l65 227h-85l9 32h85l62 214q10 36 10 48q0 16 -10.5 21.5t-40.5 5.5h-29l6 20h324q71 0 113 -11t76 -39zM317 358l-9 -32h-110l-65 -224q-10 -39 -10 -47
q0 -14 10 -19.5t34 -5.5h61q87 0 155 54t102 135.5t49 146.5t15 112q0 83 -31.5 112t-59.5 37.5t-71 8.5h-100l-80 -278h110z" />
    <glyph glyph-name="Ntilde" unicode="&#xd1;" horiz-adv-x="849" 
d="M215 662h15q29 0 53 2t39 3q2 -9 7 -22t13 -30l217 -465l109 379q4 14 7 30.5t3 27.5q0 23 -15 32.5t-52 9.5l-42 1h-11l10 37l136 -5l139 5l-11 -37h-6q-39 0 -55 -17t-24.5 -37t-26.5 -79l-127 -410q21 -47 72 -68l-5 -19l-13 1l-55 3l-59 -4q-15 10 -26.5 24.5
t-20.5 35.5l-235 490l-105 -367q-9 -33 -16 -65t-7 -44q0 -19 15.5 -28t48.5 -9h40h14l-11 -37l-129 4l-120 -3l-18 -1l11 37q45 0 64 23t45 110l113 369l6 24t3 23q0 23 -23 33.5t-75 10.5h-14l11 37q44 -5 111 -5zM435 837q16 0 47 -9l52 -17q12 -3 20 -4.5t13 -1.5
q18 0 37 27l4 6l31 -17q-33 -51 -52.5 -68.5t-45.5 -17.5q-12 0 -20.5 2t-37.5 13q-54 18 -69 18q-20 0 -38 -25l-5 -7l-29 19l13 18q25 37 41.5 50.5t38.5 13.5z" />
    <glyph glyph-name="Ograve" unicode="&#xd2;" horiz-adv-x="653" 
d="M377 680q104 0 160.5 -64.5t56.5 -182.5q0 -79 -27 -159t-77 -146t-120.5 -104t-144.5 -38q-97 0 -155 66t-58 177q0 75 22 147.5t69.5 145.5t119 115.5t154.5 42.5zM427 239q54 130 54 245q0 154 -100 154q-95 0 -155 -114t-80 -183.5t-20 -142.5q0 -81 25.5 -125.5
t75.5 -44.5q53 0 105 55t95 156zM430 728l-94 171l-3 9q0 9 14 9h68l39 -181z" />
    <glyph glyph-name="Oacute" unicode="&#xd3;" horiz-adv-x="653" 
d="M377 680q104 0 160.5 -64.5t56.5 -182.5q0 -79 -27 -159t-77 -146t-120.5 -104t-144.5 -38q-97 0 -155 66t-58 177q0 75 22 147.5t69.5 145.5t119 115.5t154.5 42.5zM427 239q54 130 54 245q0 154 -100 154q-95 0 -155 -114t-80 -183.5t-20 -142.5q0 -81 25.5 -125.5
t75.5 -44.5q53 0 105 55t95 156zM498 909l6 -6q-2 -5 -5 -7l-197 -176l-18 17l123 172h91z" />
    <glyph glyph-name="Ocircumflex" unicode="&#xd4;" horiz-adv-x="653" 
d="M377 680q104 0 160.5 -64.5t56.5 -182.5q0 -79 -27 -159t-77 -146t-120.5 -104t-144.5 -38q-97 0 -155 66t-58 177q0 75 22 147.5t69.5 145.5t119 115.5t154.5 42.5zM427 239q54 130 54 245q0 154 -100 154q-95 0 -155 -114t-80 -183.5t-20 -142.5q0 -81 25.5 -125.5
t75.5 -44.5q53 0 105 55t95 156zM469 908l27 -184l-28 -6l-55 99l-121 -99l-20 21l141 169h56z" />
    <glyph glyph-name="Otilde" unicode="&#xd5;" horiz-adv-x="653" 
d="M377 680q104 0 160.5 -64.5t56.5 -182.5q0 -79 -27 -159t-77 -146t-120.5 -104t-144.5 -38q-97 0 -155 66t-58 177q0 75 22 147.5t69.5 145.5t119 115.5t154.5 42.5zM427 239q54 130 54 245q0 154 -100 154q-95 0 -155 -114t-80 -183.5t-20 -142.5q0 -81 25.5 -125.5
t75.5 -44.5q53 0 105 55t95 156zM338 837q16 0 47 -9l52 -17q12 -3 20 -4.5t13 -1.5q18 0 37 27l4 6l31 -17q-33 -51 -52.5 -68.5t-45.5 -17.5q-12 0 -20.5 2t-37.5 13q-54 18 -69 18q-20 0 -38 -25l-5 -7l-29 19l13 18q25 37 41.5 50.5t38.5 13.5z" />
    <glyph glyph-name="Odieresis" unicode="&#xd6;" horiz-adv-x="653" 
d="M377 680q104 0 160.5 -64.5t56.5 -182.5q0 -79 -27 -159t-77 -146t-120.5 -104t-144.5 -38q-97 0 -155 66t-58 177q0 75 22 147.5t69.5 145.5t119 115.5t154.5 42.5zM427 239q54 130 54 245q0 154 -100 154q-95 0 -155 -114t-80 -183.5t-20 -142.5q0 -81 25.5 -125.5
t75.5 -44.5q53 0 105 55t95 156zM395 778q0 -26 -15 -42t-41 -16q-49 0 -49 46q0 27 15 44t41 17q23 0 36 -13t13 -36zM558 778q0 -26 -15 -42t-40 -16q-49 0 -49 46q0 27 15 44t40 17q23 0 36 -13t13 -36z" />
    <glyph glyph-name="multiply" unicode="&#xd7;" 
d="M381 544l41 -41l-155 -154l154 -154l-39 -40l-154 154l-155 -155l-41 41l155 155l-154 153l40 40l154 -154z" />
    <glyph glyph-name="Oslash" unicode="&#xd8;" horiz-adv-x="708" 
d="M127 513q51 80 124.5 123.5t156.5 43.5q117 0 174 -85l85 78l28 -30l-93 -86q21 -53 21 -126q0 -77 -27 -157t-76.5 -146t-120 -104t-144.5 -38q-117 0 -173 88l-88 -81l-26 29l96 89q-23 57 -23 119q0 150 86 283zM411 638q-97 0 -156 -114t-79.5 -184t-20.5 -142
l353 328q-5 54 -30.5 83t-66.5 29zM157 140q14 -112 100 -112q52 0 104 55t86 135.5t48.5 138t14.5 111.5l-353 -324v-4z" />
    <glyph glyph-name="Ugrave" unicode="&#xd9;" horiz-adv-x="764" 
d="M256 662l152 5l-10 -37h-8q-39 0 -55.5 -17.5t-28.5 -51.5l-20 -64l-74 -254q-9 -32 -15 -60t-6 -44q0 -46 33 -74t88 -28q113 0 150 66.5t54 119.5l25 78l56 196q12 40 16 58.5t4 33.5q0 41 -50 41h-8l11 37l103 -4l112 4l-10 -37h-10q-36 0 -55 -18.5t-35 -69.5
l-77 -244q-27 -84 -56 -155.5t-91 -113.5t-167 -42q-208 0 -208 151q0 36 17 95l76 264q12 40 16 58.5t4 33.5q0 41 -50 41h-15l11 37zM486 742l-94 171l-3 9q0 9 14 9h68l39 -181z" />
    <glyph glyph-name="Uacute" unicode="&#xda;" horiz-adv-x="764" 
d="M256 662l152 5l-10 -37h-8q-39 0 -55.5 -17.5t-28.5 -51.5l-20 -64l-74 -254q-9 -32 -15 -60t-6 -44q0 -46 33 -74t88 -28q113 0 150 66.5t54 119.5l25 78l56 196q12 40 16 58.5t4 33.5q0 41 -50 41h-8l11 37l103 -4l112 4l-10 -37h-10q-36 0 -55 -18.5t-35 -69.5
l-77 -244q-27 -84 -56 -155.5t-91 -113.5t-167 -42q-208 0 -208 151q0 36 17 95l76 264q12 40 16 58.5t4 33.5q0 41 -50 41h-15l11 37zM580 917l6 -6q-2 -5 -5 -7l-197 -176l-18 17l123 172h91z" />
    <glyph glyph-name="Ucircumflex" unicode="&#xdb;" horiz-adv-x="764" 
d="M256 662l152 5l-10 -37h-8q-39 0 -55.5 -17.5t-28.5 -51.5l-20 -64l-74 -254q-9 -32 -15 -60t-6 -44q0 -46 33 -74t88 -28q113 0 150 66.5t54 119.5l25 78l56 196q12 40 16 58.5t4 33.5q0 41 -50 41h-8l11 37l103 -4l112 4l-10 -37h-10q-36 0 -55 -18.5t-35 -69.5
l-77 -244q-27 -84 -56 -155.5t-91 -113.5t-167 -42q-208 0 -208 151q0 36 17 95l76 264q12 40 16 58.5t4 33.5q0 41 -50 41h-15l11 37zM574 909l27 -184l-28 -6l-55 99l-121 -99l-20 21l141 169h56z" />
    <glyph glyph-name="Udieresis" unicode="&#xdc;" horiz-adv-x="764" 
d="M256 662l152 5l-10 -37h-8q-39 0 -55.5 -17.5t-28.5 -51.5l-20 -64l-74 -254q-9 -32 -15 -60t-6 -44q0 -46 33 -74t88 -28q113 0 150 66.5t54 119.5l25 78l56 196q12 40 16 58.5t4 33.5q0 41 -50 41h-8l11 37l103 -4l112 4l-10 -37h-10q-36 0 -55 -18.5t-35 -69.5
l-77 -244q-27 -84 -56 -155.5t-91 -113.5t-167 -42q-208 0 -208 151q0 36 17 95l76 264q12 40 16 58.5t4 33.5q0 41 -50 41h-15l11 37zM475 779q0 -26 -15 -42t-41 -16q-49 0 -49 46q0 27 15 44t41 17q23 0 36 -13t13 -36zM638 779q0 -26 -15 -42t-40 -16q-49 0 -49 46
q0 27 15 44t40 17q23 0 36 -13t13 -36z" />
    <glyph glyph-name="Yacute" unicode="&#xdd;" horiz-adv-x="630" 
d="M88 615q-16 15 -53 15l11 37q16 -2 35 -3t54 -1l95 1l72 3l-11 -37h-9q-48 0 -48 -36q0 -11 2.5 -20.5t5.5 -20.5l58 -201l159 186q25 30 34 44t9 23q0 25 -52 25l11 37l103 -4l89 3l24 1l-10 -37q-31 0 -57 -15.5t-62 -54.5l-233 -256l-39 -134q-11 -40 -15 -59.5
t-4 -32.5q0 -41 50 -41h14l-10 -37l-12 1l-124 3l-120 -3l-18 -1l11 37h8q42 0 60.5 24t43.5 109l38 134l-56 199q-11 40 -25.5 69.5t-28.5 42.5zM486 933l6 -6q-2 -5 -5 -7l-197 -176l-18 17l123 172h91z" />
    <glyph glyph-name="Thorn" unicode="&#xde;" horiz-adv-x="609" 
d="M-94 19h22q42 0 58 14t31 66l134 469q4 11 7.5 27t3.5 21q0 17 -13.5 24t-47.5 7h-17l6 20h299l-5 -20h-32q-42 0 -56.5 -12.5t-28.5 -62.5l-10 -35h113q95 0 128 -18t49 -46t16 -63q0 -56 -31 -108t-94 -90t-161 -38h-124l-21 -75q-11 -38 -11 -48q0 -32 53 -32h39
l-5 -19h-308zM237 204q56 0 82 11.5t48.5 32t38 44t26.5 61t11 63.5q0 92 -110 92h-84l-87 -304h75z" />
    <glyph glyph-name="germandbls" unicode="&#xdf;" horiz-adv-x="508" 
d="M132 581q31 49 84.5 77t114.5 28q65 0 106.5 -31.5t41.5 -81.5q0 -33 -16 -59t-55 -55l-66 -44q-30 -17 -42.5 -29.5t-12.5 -26.5q0 -10 7.5 -25.5t34.5 -56t40 -69.5t13 -53q0 -62 -55 -114t-122 -52q-35 0 -56 15t-21 39q0 22 14 38t32 16q13 0 20.5 -8t18.5 -35.5
t29 -27.5t33 21t15 47q0 22 -10 42.5t-13.5 27t-28 44t-35.5 60.5t-11 39q0 22 12.5 41.5t48.5 48.5l31 25q100 83 100 161q0 29 -17 48t-45 19q-95 0 -147 -198l-93 -351q-22 -85 -44 -138t-71 -116.5t-156 -63.5q-88 0 -88 52q0 26 18.5 46.5t41.5 20.5q12 0 19 -8.5
t14.5 -32.5t12.5 -30t18 -6q29 0 50 36.5t38.5 85t36.5 120.5l100 376q21 77 60 138z" />
    <glyph glyph-name="agrave" unicode="&#xe0;" horiz-adv-x="489" 
d="M232 -10q-37 0 -37 48q0 40 13 83q-64 -72 -108 -101.5t-89 -29.5q-23 0 -36 16t-13 46q0 53 25 113t75 122t102.5 90.5t120.5 28.5l21 -1l10 22l98 13l5 -4q0 -4 -6.5 -17.5t-13 -27.5t-35.5 -90t-43 -121.5t-18 -65.5t-4 -29q0 -19 11 -19t23 12l22 19l31 30l20 -20
l-7 -8q-102 -109 -167 -109zM75 92q0 -19 15 -19q10 0 28 11.5t40 31.5q23 23 44 56.5t43.5 80.5t29 65.5t6.5 28.5q0 21 -29 21q-31 0 -58 -24t-73 -108t-46 -144zM348 451l-94 171l-3 9q0 9 14 9h68l39 -181z" />
    <glyph glyph-name="aacute" unicode="&#xe1;" horiz-adv-x="489" 
d="M232 -10q-37 0 -37 48q0 40 13 83q-64 -72 -108 -101.5t-89 -29.5q-23 0 -36 16t-13 46q0 53 25 113t75 122t102.5 90.5t120.5 28.5l21 -1l10 22l98 13l5 -4q0 -4 -6.5 -17.5t-13 -27.5t-35.5 -90t-43 -121.5t-18 -65.5t-4 -29q0 -19 11 -19t23 12l22 19l31 30l20 -20
l-7 -8q-102 -109 -167 -109zM75 92q0 -19 15 -19q10 0 28 11.5t40 31.5q23 23 44 56.5t43.5 80.5t29 65.5t6.5 28.5q0 21 -29 21q-31 0 -58 -24t-73 -108t-46 -144zM416 640l6 -6q-2 -5 -5 -7l-197 -176l-18 17l123 172h91z" />
    <glyph glyph-name="acircumflex" unicode="&#xe2;" horiz-adv-x="489" 
d="M232 -10q-37 0 -37 48q0 40 13 83q-64 -72 -108 -101.5t-89 -29.5q-23 0 -36 16t-13 46q0 53 25 113t75 122t102.5 90.5t120.5 28.5l21 -1l10 22l98 13l5 -4q0 -4 -6.5 -17.5t-13 -27.5t-35.5 -90t-43 -121.5t-18 -65.5t-4 -29q0 -19 11 -19t23 12l22 19l31 30l20 -20
l-7 -8q-102 -109 -167 -109zM75 92q0 -19 15 -19q10 0 28 11.5t40 31.5q23 23 44 56.5t43.5 80.5t29 65.5t6.5 28.5q0 21 -29 21q-31 0 -58 -24t-73 -108t-46 -144zM374 664l27 -184l-28 -6l-55 99l-121 -99l-20 21l141 169h56z" />
    <glyph glyph-name="atilde" unicode="&#xe3;" horiz-adv-x="489" 
d="M232 -10q-37 0 -37 48q0 40 13 83q-64 -72 -108 -101.5t-89 -29.5q-23 0 -36 16t-13 46q0 53 25 113t75 122t102.5 90.5t120.5 28.5l21 -1l10 22l98 13l5 -4q0 -4 -6.5 -17.5t-13 -27.5t-35.5 -90t-43 -121.5t-18 -65.5t-4 -29q0 -19 11 -19t23 12l22 19l31 30l20 -20
l-7 -8q-102 -109 -167 -109zM75 92q0 -19 15 -19q10 0 28 11.5t40 31.5q23 23 44 56.5t43.5 80.5t29 65.5t6.5 28.5q0 21 -29 21q-31 0 -58 -24t-73 -108t-46 -144zM256 628q16 0 47 -9l52 -17q12 -3 20 -4.5t13 -1.5q18 0 37 27l4 6l31 -17q-33 -51 -52.5 -68.5
t-45.5 -17.5q-12 0 -20.5 2t-37.5 13q-54 18 -69 18q-20 0 -38 -25l-5 -7l-29 19l13 18q25 37 41.5 50.5t38.5 13.5z" />
    <glyph glyph-name="adieresis" unicode="&#xe4;" horiz-adv-x="489" 
d="M232 -10q-37 0 -37 48q0 40 13 83q-64 -72 -108 -101.5t-89 -29.5q-23 0 -36 16t-13 46q0 53 25 113t75 122t102.5 90.5t120.5 28.5l21 -1l10 22l98 13l5 -4q0 -4 -6.5 -17.5t-13 -27.5t-35.5 -90t-43 -121.5t-18 -65.5t-4 -29q0 -19 11 -19t23 12l22 19l31 30l20 -20
l-7 -8q-102 -109 -167 -109zM75 92q0 -19 15 -19q10 0 28 11.5t40 31.5q23 23 44 56.5t43.5 80.5t29 65.5t6.5 28.5q0 21 -29 21q-31 0 -58 -24t-73 -108t-46 -144zM290 575q0 -26 -15 -42t-41 -16q-49 0 -49 46q0 27 15 44t41 17q23 0 36 -13t13 -36zM453 575
q0 -26 -15 -42t-40 -16q-49 0 -49 46q0 27 15 44t40 17q23 0 36 -13t13 -36z" />
    <glyph glyph-name="aring" unicode="&#xe5;" horiz-adv-x="489" 
d="M232 -10q-37 0 -37 48q0 40 13 83q-64 -72 -108 -101.5t-89 -29.5q-23 0 -36 16t-13 46q0 53 25 113t75 122t102.5 90.5t120.5 28.5l21 -1l10 22l98 13l5 -4q0 -4 -6.5 -17.5t-13 -27.5t-35.5 -90t-43 -121.5t-18 -65.5t-4 -29q0 -19 11 -19t23 12l22 19l31 30l20 -20
l-7 -8q-102 -109 -167 -109zM75 92q0 -19 15 -19q10 0 28 11.5t40 31.5q23 23 44 56.5t43.5 80.5t29 65.5t6.5 28.5q0 21 -29 21q-31 0 -58 -24t-73 -108t-46 -144zM328 463q-35 0 -59 24t-24 59q0 34 24 59t59 25t59.5 -24.5t24.5 -59.5t-24 -59t-60 -24zM328 498
q20 0 34.5 13.5t14.5 34.5t-14 35t-35 14q-20 0 -34 -14t-14 -35q0 -20 14 -34t34 -14z" />
    <glyph glyph-name="ae" unicode="&#xe6;" horiz-adv-x="565" 
d="M188 94l1 18l-13 -14q-54 -58 -92.5 -83t-76.5 -25q-47 0 -47 60q0 105 98.5 227t194.5 122l55 -6q41 31 93 31q34 0 56.5 -17.5t22.5 -43.5q0 -52 -56 -96t-127 -44q-4 -20 -5 -31.5t-1 -27.5q0 -46 11 -73.5t30 -27.5q17 0 40 19.5t55 60.5l4 5l25 -18
q-44 -67 -92.5 -103.5t-94.5 -36.5q-37 0 -59 28t-22 76zM227 359q-41 0 -74 -56.5t-52 -113.5t-19 -91q0 -19 11 -19q15 0 43.5 28t37 37t16.5 22q19 123 78 186q-27 7 -41 7zM366 292q30 44 30 76q0 19 -14 19q-21 0 -46 -38t-33 -83q6 -9 18 -9q11 0 22.5 9t22.5 26z" />
    <glyph glyph-name="ccedilla" unicode="&#xe7;" horiz-adv-x="381" 
d="M127 -98q0 -52 -44.5 -76.5t-82.5 -24.5q-31 0 -50.5 9t-19.5 24q0 10 9 20t17 10q11 0 26 -15t29 -15q18 0 31 15t13 37q0 29 -30 29q-15 0 -25 -13l-17 17l62 74q-63 13 -63 96q0 127 87 231t194 104q24 0 41 -12t17 -30q0 -25 -19.5 -45.5t-42.5 -20.5q-17 0 -24.5 10
t-7.5 34q0 22 -16 22q-33 0 -76 -92t-43 -184q0 -57 33 -57q27 0 53 20t34 27t26 24l5 6l20 -23q-49 -53 -96.5 -83t-87.5 -30l-18 -35q66 0 66 -53z" />
    <glyph glyph-name="egrave" unicode="&#xe8;" horiz-adv-x="387" 
d="M-21 91q0 106 80 219.5t181 113.5q61 0 61 -73q0 -61 -67.5 -104.5t-132.5 -74.5q-3 -14 -4 -22t-1 -20q0 -73 33 -73q35 0 109 68l7 7l20 -25q-61 -61 -108 -89t-90 -28q-88 0 -88 101zM194 382q-7 0 -26.5 -21.5t-36.5 -67t-23 -80.5q103 45 103 130q0 39 -17 39z
M264 475l-94 171l-3 9q0 9 14 9h68l39 -181z" />
    <glyph glyph-name="eacute" unicode="&#xe9;" horiz-adv-x="387" 
d="M-21 91q0 106 80 219.5t181 113.5q61 0 61 -73q0 -61 -67.5 -104.5t-132.5 -74.5q-3 -14 -4 -22t-1 -20q0 -73 33 -73q35 0 109 68l7 7l20 -25q-61 -61 -108 -89t-90 -28q-88 0 -88 101zM194 382q-7 0 -26.5 -21.5t-36.5 -67t-23 -80.5q103 45 103 130q0 39 -17 39z
M365 656l6 -6q-2 -5 -5 -7l-197 -176l-18 17l123 172h91z" />
    <glyph glyph-name="ecircumflex" unicode="&#xea;" horiz-adv-x="387" 
d="M-21 91q0 106 80 219.5t181 113.5q61 0 61 -73q0 -61 -67.5 -104.5t-132.5 -74.5q-3 -14 -4 -22t-1 -20q0 -73 33 -73q35 0 109 68l7 7l20 -25q-61 -61 -108 -89t-90 -28q-88 0 -88 101zM194 382q-7 0 -26.5 -21.5t-36.5 -67t-23 -80.5q103 45 103 130q0 39 -17 39z
M322 640l27 -184l-28 -6l-55 99l-121 -99l-20 21l141 169h56z" />
    <glyph glyph-name="edieresis" unicode="&#xeb;" horiz-adv-x="387" 
d="M-21 91q0 106 80 219.5t181 113.5q61 0 61 -73q0 -61 -67.5 -104.5t-132.5 -74.5q-3 -14 -4 -22t-1 -20q0 -73 33 -73q35 0 109 68l7 7l20 -25q-61 -61 -108 -89t-90 -28q-88 0 -88 101zM194 382q-7 0 -26.5 -21.5t-36.5 -67t-23 -80.5q103 45 103 130q0 39 -17 39z
M206 575q0 -26 -15 -42t-41 -16q-49 0 -49 46q0 27 15 44t41 17q23 0 36 -13t13 -36zM369 575q0 -26 -15 -42t-40 -16q-49 0 -49 46q0 27 15 44t40 17q23 0 36 -13t13 -36z" />
    <glyph glyph-name="igrave" unicode="&#xec;" horiz-adv-x="299" 
d="M117 25q-50 -35 -93 -35q-18 0 -29.5 11.5t-11.5 30.5q0 23 12 54l88 225l4 17q0 10 -9 10q-13 0 -43 -34l-24 -26l-23 23l6 6q104 116 177 116q40 0 40 -34q0 -19 -17 -62l-85 -209q-10 -24 -10 -34q0 -14 10 -14t22.5 10t23.5 21l26 26l7 7l21 -23l-11 -12
q-28 -30 -46 -46t-35 -28zM220 451l-94 171l-3 9q0 9 14 9h68l39 -181z" />
    <glyph glyph-name="iacute" unicode="&#xed;" horiz-adv-x="299" 
d="M117 25q-50 -35 -93 -35q-18 0 -29.5 11.5t-11.5 30.5q0 23 12 54l88 225l4 17q0 10 -9 10q-13 0 -43 -34l-24 -26l-23 23l6 6q104 116 177 116q40 0 40 -34q0 -19 -17 -62l-85 -209q-10 -24 -10 -34q0 -14 10 -14t22.5 10t23.5 21l26 26l7 7l21 -23l-11 -12
q-28 -30 -46 -46t-35 -28zM321 640l6 -6q-2 -5 -5 -7l-197 -176l-18 17l123 172h91z" />
    <glyph glyph-name="icircumflex" unicode="&#xee;" horiz-adv-x="299" 
d="M117 25q-50 -35 -93 -35q-18 0 -29.5 11.5t-11.5 30.5q0 23 12 54l88 225l4 17q0 10 -9 10q-13 0 -43 -34l-24 -26l-23 23l6 6q104 116 177 116q40 0 40 -34q0 -19 -17 -62l-85 -209q-10 -24 -10 -34q0 -14 10 -14t22.5 10t23.5 21l26 26l7 7l21 -23l-11 -12
q-28 -30 -46 -46t-35 -28zM245 640l27 -184l-28 -6l-55 99l-121 -99l-20 21l141 169h56z" />
    <glyph glyph-name="idieresis" unicode="&#xef;" horiz-adv-x="299" 
d="M117 25q-50 -35 -93 -35q-18 0 -29.5 11.5t-11.5 30.5q0 23 12 54l88 225l4 17q0 10 -9 10q-13 0 -43 -34l-24 -26l-23 23l6 6q104 116 177 116q40 0 40 -34q0 -19 -17 -62l-85 -209q-10 -24 -10 -34q0 -14 10 -14t22.5 10t23.5 21l26 26l7 7l21 -23l-11 -12
q-28 -30 -46 -46t-35 -28zM174 598q0 -26 -15 -42t-41 -16q-49 0 -49 46q0 27 15 44t41 17q23 0 36 -13t13 -36zM337 598q0 -26 -15 -42t-40 -16q-49 0 -49 46q0 27 15 44t40 17q23 0 36 -13t13 -36z" />
    <glyph glyph-name="eth" unicode="&#xf0;" horiz-adv-x="524" 
d="M298 612l-27 28q-14 15 -42 34l15 18q51 -22 91 -55l95 63l12 -21l-90 -59q99 -96 99 -261q0 -84 -25 -153t-98 -145t-189 -76q-74 0 -119 44t-45 118q0 118 91.5 212.5t205.5 94.5q38 0 57.5 -11.5t22 -14t16.5 -22.5l8 -9q0 66 -13.5 104t-50.5 92l-97 -66l-12 22z
M71 105q0 -94 75 -94q71 0 115 66.5t65 133.5t21 119q0 50 -18.5 73.5t-59.5 23.5q-71 0 -134.5 -95.5t-63.5 -226.5z" />
    <glyph glyph-name="ntilde" unicode="&#xf1;" horiz-adv-x="538" 
d="M153 424q43 0 43 -45q0 -22 -17 -74l-23 -67l12 16q65 83 120 126.5t103 43.5q46 0 46 -43q0 -25 -21 -77l-26 -60q-1 -3 -34 -71t-37.5 -80t-4.5 -18q0 -10 12 -10q11 0 28 13.5t51 50.5l5 6l23 -20q-19 -24 -56 -59t-66.5 -50.5t-61.5 -15.5q-46 0 -46 36q0 15 3.5 27
t17.5 44l60 130q40 83 40 103q0 12 -9 12t-24.5 -10.5t-47.5 -41t-59 -68.5t-61 -105t-54 -117l-17 -1l-31 -3l-46 -6l-4 3l3 9l42 104l66 176q12 36 12 50q0 11 -10 11q-12 0 -38 -30l-25 -29l-6 -7l-23 19q24 36 67 82t94 46zM280 628q16 0 47 -9l52 -17q12 -3 20 -4.5
t13 -1.5q18 0 37 27l4 6l31 -17q-33 -51 -52.5 -68.5t-45.5 -17.5q-12 0 -20.5 2t-37.5 13q-54 18 -69 18q-20 0 -38 -25l-5 -7l-29 19l13 18q25 37 41.5 50.5t38.5 13.5z" />
    <glyph glyph-name="ograve" unicode="&#xf2;" horiz-adv-x="452" 
d="M227 424q61 0 99 -38t38 -98q0 -98 -72 -198t-178 -100q-61 0 -97 37t-36 99q0 48 19 102t73 125t154 71zM215 139q21 50 34 102.5t13 91.5q0 54 -34 54q-26 0 -54 -37t-58.5 -117t-30.5 -152q0 -52 37 -52q46 0 93 110zM330 451l-94 171l-3 9q0 9 14 9h68l39 -181z" />
    <glyph glyph-name="oacute" unicode="&#xf3;" horiz-adv-x="452" 
d="M227 424q61 0 99 -38t38 -98q0 -98 -72 -198t-178 -100q-61 0 -97 37t-36 99q0 48 19 102t73 125t154 71zM215 139q21 50 34 102.5t13 91.5q0 54 -34 54q-26 0 -54 -37t-58.5 -117t-30.5 -152q0 -52 37 -52q46 0 93 110zM347 640l6 -6q-2 -5 -5 -7l-197 -176l-18 17
l123 172h91z" />
    <glyph glyph-name="ocircumflex" unicode="&#xf4;" horiz-adv-x="452" 
d="M227 424q61 0 99 -38t38 -98q0 -98 -72 -198t-178 -100q-61 0 -97 37t-36 99q0 48 19 102t73 125t154 71zM215 139q21 50 34 102.5t13 91.5q0 54 -34 54q-26 0 -54 -37t-58.5 -117t-30.5 -152q0 -52 37 -52q46 0 93 110zM318 640l27 -184l-28 -6l-55 99l-121 -99l-20 21
l141 169h56z" />
    <glyph glyph-name="otilde" unicode="&#xf5;" horiz-adv-x="452" 
d="M227 424q61 0 99 -38t38 -98q0 -98 -72 -198t-178 -100q-61 0 -97 37t-36 99q0 48 19 102t73 125t154 71zM215 139q21 50 34 102.5t13 91.5q0 54 -34 54q-26 0 -54 -37t-58.5 -117t-30.5 -152q0 -52 37 -52q46 0 93 110zM237 628q16 0 47 -9l52 -17q12 -3 20 -4.5
t13 -1.5q18 0 37 27l4 6l31 -17q-33 -51 -52.5 -68.5t-45.5 -17.5q-12 0 -20.5 2t-37.5 13q-54 18 -69 18q-20 0 -38 -25l-5 -7l-29 19l13 18q25 37 41.5 50.5t38.5 13.5z" />
    <glyph glyph-name="odieresis" unicode="&#xf6;" horiz-adv-x="452" 
d="M227 424q61 0 99 -38t38 -98q0 -98 -72 -198t-178 -100q-61 0 -97 37t-36 99q0 48 19 102t73 125t154 71zM215 139q21 50 34 102.5t13 91.5q0 54 -34 54q-26 0 -54 -37t-58.5 -117t-30.5 -152q0 -52 37 -52q46 0 93 110zM272 575q0 -26 -15 -42t-41 -16q-49 0 -49 46
q0 27 15 44t41 17q23 0 36 -13t13 -36zM435 575q0 -26 -15 -42t-40 -16q-49 0 -49 46q0 27 15 44t40 17q23 0 36 -13t13 -36z" />
    <glyph glyph-name="divide" unicode="&#xf7;" 
d="M461 321h-467v56h467v-56zM228 481q-20 0 -34 13t-14 34q0 20 13.5 33.5t33.5 13.5q21 0 34.5 -13.5t13.5 -33.5q0 -19 -14 -33t-33 -14zM227 123q-20 0 -33.5 13.5t-13.5 33.5t13.5 33.5t33.5 13.5t33.5 -13.5t13.5 -33.5t-13.5 -33.5t-33.5 -13.5z" />
    <glyph glyph-name="oslash" unicode="&#xf8;" horiz-adv-x="452" 
d="M51 323q73 101 178 101q61 0 102 -42l42 40l26 -27l-48 -44l1 -4q12 -27 12 -59q0 -97 -72.5 -197.5t-176.5 -100.5q-63 0 -103 42l-39 -37l-26 29l45 42q-11 26 -11 60q0 47 19 100t51 97zM262 332q0 55 -34 55q-25 0 -54 -37.5t-49.5 -92.5t-30.5 -96l167 156zM85 81
q0 -52 37 -52q41 0 78.5 77.5t51.5 148.5l1 3l-167 -157z" />
    <glyph glyph-name="ugrave" unicode="&#xf9;" horiz-adv-x="546" 
d="M232 388q0 -15 -11.5 -45t-44.5 -101l-34 -74l-16 -38q-9 -21 -9 -30q0 -13 9 -13t26 15.5t57 64.5t76.5 108.5t67.5 129.5l4 9h6q21 0 46.5 2.5t40.5 6.5l6 1l7 -6l-2 -6q-6 -9 -22 -43l-24 -51l-73 -198q-8 -26 -8 -38q0 -13 9 -13q10 0 31.5 21.5t32.5 33.5t23 27
l24 -20l-7 -8q-38 -44 -58.5 -64.5t-53 -44.5t-66.5 -24q-42 0 -42 43q0 17 2.5 27.5t16.5 52.5l25 64l8 21l-45 -56q-32 -40 -58.5 -68t-62.5 -56t-76 -28q-41 0 -41 43q0 13 7 33l25 66l78 174q4 12 6 19.5t2 8.5q0 9 -7 9q-8 0 -31.5 -20.5t-41.5 -44.5l-25 22
q107 125 178 125q45 0 45 -37zM377 475l-94 171l-3 9q0 9 14 9h68l39 -181z" />
    <glyph glyph-name="uacute" unicode="&#xfa;" horiz-adv-x="546" 
d="M232 388q0 -15 -11.5 -45t-44.5 -101l-34 -74l-16 -38q-9 -21 -9 -30q0 -13 9 -13t26 15.5t57 64.5t76.5 108.5t67.5 129.5l4 9h6q21 0 46.5 2.5t40.5 6.5l6 1l7 -6l-2 -6q-6 -9 -22 -43l-24 -51l-73 -198q-8 -26 -8 -38q0 -13 9 -13q10 0 31.5 21.5t32.5 33.5t23 27
l24 -20l-7 -8q-38 -44 -58.5 -64.5t-53 -44.5t-66.5 -24q-42 0 -42 43q0 17 2.5 27.5t16.5 52.5l25 64l8 21l-45 -56q-32 -40 -58.5 -68t-62.5 -56t-76 -28q-41 0 -41 43q0 13 7 33l25 66l78 174q4 12 6 19.5t2 8.5q0 9 -7 9q-8 0 -31.5 -20.5t-41.5 -44.5l-25 22
q107 125 178 125q45 0 45 -37zM445 640l6 -6q-2 -5 -5 -7l-197 -176l-18 17l123 172h91z" />
    <glyph glyph-name="ucircumflex" unicode="&#xfb;" horiz-adv-x="546" 
d="M232 388q0 -15 -11.5 -45t-44.5 -101l-34 -74l-16 -38q-9 -21 -9 -30q0 -13 9 -13t26 15.5t57 64.5t76.5 108.5t67.5 129.5l4 9h6q21 0 46.5 2.5t40.5 6.5l6 1l7 -6l-2 -6q-6 -9 -22 -43l-24 -51l-73 -198q-8 -26 -8 -38q0 -13 9 -13q10 0 31.5 21.5t32.5 33.5t23 27
l24 -20l-7 -8q-38 -44 -58.5 -64.5t-53 -44.5t-66.5 -24q-42 0 -42 43q0 17 2.5 27.5t16.5 52.5l25 64l8 21l-45 -56q-32 -40 -58.5 -68t-62.5 -56t-76 -28q-41 0 -41 43q0 13 7 33l25 66l78 174q4 12 6 19.5t2 8.5q0 9 -7 9q-8 0 -31.5 -20.5t-41.5 -44.5l-25 22
q107 125 178 125q45 0 45 -37zM402 672l27 -184l-28 -6l-55 99l-121 -99l-20 21l141 169h56z" />
    <glyph glyph-name="udieresis" unicode="&#xfc;" horiz-adv-x="546" 
d="M232 388q0 -15 -11.5 -45t-44.5 -101l-34 -74l-16 -38q-9 -21 -9 -30q0 -13 9 -13t26 15.5t57 64.5t76.5 108.5t67.5 129.5l4 9h6q21 0 46.5 2.5t40.5 6.5l6 1l7 -6l-2 -6q-6 -9 -22 -43l-24 -51l-73 -198q-8 -26 -8 -38q0 -13 9 -13q10 0 31.5 21.5t32.5 33.5t23 27
l24 -20l-7 -8q-38 -44 -58.5 -64.5t-53 -44.5t-66.5 -24q-42 0 -42 43q0 17 2.5 27.5t16.5 52.5l25 64l8 21l-45 -56q-32 -40 -58.5 -68t-62.5 -56t-76 -28q-41 0 -41 43q0 13 7 33l25 66l78 174q4 12 6 19.5t2 8.5q0 9 -7 9q-8 0 -31.5 -20.5t-41.5 -44.5l-25 22
q107 125 178 125q45 0 45 -37zM332 575q0 -26 -15 -42t-41 -16q-49 0 -49 46q0 27 15 44t41 17q23 0 36 -13t13 -36zM495 575q0 -26 -15 -42t-40 -16q-49 0 -49 46q0 27 15 44t40 17q23 0 36 -13t13 -36z" />
    <glyph glyph-name="yacute" unicode="&#xfd;" horiz-adv-x="478" 
d="M132 424q51 0 73 -84.5t22 -171.5q0 -43 -4 -73.5t-15 -68.5l44 62q26 43 48 94q17 47 17 88q0 34 -12 49l-15 20q-13 16 -13 33q0 21 15 36t37 15q26 0 41.5 -22.5t15.5 -59.5q0 -72 -42.5 -165t-122 -188.5t-171.5 -150.5t-179 -55q-34 0 -53.5 13t-19.5 36t18 41
t43 18q24 0 38 -22l9 -12q11 -19 41 -19q32 0 73 28t76 87.5t35 195.5q0 35 -5 77t-13 78.5t-24 36.5q-24 0 -64 -80l-28 14q8 20 22 44.5t43.5 65t69.5 40.5zM410 664l6 -6q-2 -5 -5 -7l-197 -176l-18 17l123 172h91z" />
    <glyph glyph-name="thorn" unicode="&#xfe;" horiz-adv-x="542" 
d="M327 469q66 0 99 -35q17 -16 28 -46.5t11 -61.5q0 -60 -25.5 -127.5t-85 -140t-166.5 -72.5q-43 0 -75.5 19.5t-44.5 51.5l-44 -152q-11 -39 -11 -49q0 -22 33 -22h25l-6 -19h-220l6 19h8q32 0 43 12t25 59l193 671q11 39 11 52q0 19 -28 19h-11l6 20h144l-78 -273
q75 75 163 75zM169 22q43 0 81 34t64 91.5t40 109.5t14 85q0 41 -20 63t-57 22q-52 0 -95 -36t-60 -93l-47 -164q-4 -21 -4 -40q0 -28 25 -50t59 -22z" />
    <glyph glyph-name="ydieresis" unicode="&#xff;" horiz-adv-x="478" 
d="M132 424q51 0 73 -84.5t22 -171.5q0 -43 -4 -73.5t-15 -68.5l44 62q26 43 48 94q17 47 17 88q0 34 -12 49l-15 20q-13 16 -13 33q0 21 15 36t37 15q26 0 41.5 -22.5t15.5 -59.5q0 -72 -42.5 -165t-122 -188.5t-171.5 -150.5t-179 -55q-34 0 -53.5 13t-19.5 36t18 41
t43 18q24 0 38 -22l9 -12q11 -19 41 -19q32 0 73 28t76 87.5t35 195.5q0 35 -5 77t-13 78.5t-24 36.5q-24 0 -64 -80l-28 14q8 20 22 44.5t43.5 65t69.5 40.5zM251 575q0 -26 -15 -42t-41 -16q-49 0 -49 46q0 27 15 44t41 17q23 0 36 -13t13 -36zM414 575q0 -26 -15 -42
t-40 -16q-49 0 -49 46q0 27 15 44t40 17q23 0 36 -13t13 -36z" />
    <glyph glyph-name="OE" unicode="&#x152;" horiz-adv-x="911" 
d="M853 509h-38v10q0 69 -31 87t-149 18h-11l-72 -253h72q69 0 95.5 16t43.5 69h37q-34 -94 -61 -210l-4 -15h-36q8 32 8 51q0 24 -12 32t-31.5 11t-51.5 3h-73l-49 -171q-6 -22 -10 -41.5t-4 -29.5q0 -23 19.5 -32.5t66.5 -9.5q97 0 143.5 27t77.5 103l38 -17l-22 -44
l-46 -99l-6 -14l-19 1l-188 4l-220 -6l-55 -5l-25 -1q-110 0 -169.5 63.5t-59.5 179.5q0 153 104.5 295t284.5 142l47 -2l33 -3l101 -5l100 1h101l87 3q-8 -47 -11.5 -80t-3.5 -69zM421 632q-57 0 -111 -35t-95.5 -100.5t-65.5 -143.5t-24 -148q0 -83 35.5 -126.5
t103.5 -43.5q41 0 64.5 22t37.5 74l119 415q8 27 8 38q0 22 -19.5 35t-52.5 13z" />
    <glyph glyph-name="oe" unicode="&#x153;" horiz-adv-x="614" 
d="M295 -10q-56 0 -71 52q-50 -52 -119 -52q-58 0 -92 39t-34 106q0 107 77 198t170 91q73 0 108 -67q63 69 129 69q32 0 49.5 -19.5t17.5 -53.5q0 -54 -42 -85.5t-80 -54t-81 -42.5q-3 -21 -3 -31q0 -83 36 -83q22 0 66 34l46 39l22 -22q-16 -17 -30 -29.5t-63.5 -50.5
t-105.5 -38zM207 131q21 50 35 109t14 100q0 20 -10 34t-25 14q-39 0 -87.5 -106.5t-48.5 -206.5q0 -48 33 -48q21 0 45 27.5t44 76.5zM422 381q-19 0 -45 -51t-40 -118q103 47 103 128q0 41 -18 41z" />
    <glyph glyph-name="Scaron" unicode="&#x160;" horiz-adv-x="560" 
d="M70 196q-7 -38 -7 -59q0 -48 32 -78t84 -30q53 0 88 32t35 80q0 51 -56 112l-60 67q-47 53 -67 92t-20 80q0 82 61 135t155 53q46 0 80 -10l43 -13q5 -2 21.5 -5t29.5 -5q-30 -82 -37 -156h-40q4 27 4 43q0 48 -29 76t-80 28q-44 0 -74 -26t-30 -65q0 -51 65 -119l46 -49
q51 -54 74.5 -99.5t23.5 -92.5q0 -88 -65 -144t-169 -56q-43 0 -105 13l-44 11q-13 3 -22.5 5t-25.5 2q34 105 48 178h41zM289 917l55 -100l120 100l21 -21l-141 -170h-56l-27 186z" />
    <glyph glyph-name="scaron" unicode="&#x161;" horiz-adv-x="362" 
d="M278 374q0 -21 -17 -39t-38 -18q-12 0 -21 8.5t-11 22.5l-2 15q0 10 -5 16t-13 6q-13 0 -24 -12t-11 -26q0 -31 36 -96l29 -52q19 -36 19 -71q0 -60 -47 -99t-118 -39q-87 0 -87 58q0 23 15 40t37 17q28 0 35.5 -32t13 -39t18.5 -7q18 0 30.5 15.5t12.5 37.5
q0 17 -8.5 39t-14 32t-33 57t-27.5 81q0 53 48 94t110 41q31 0 52 -14t21 -36zM189 643l55 -100l120 100l21 -21l-141 -170h-56l-27 186z" />
    <glyph glyph-name="Ydieresis" unicode="&#x178;" horiz-adv-x="630" 
d="M88 615q-16 15 -53 15l11 37q16 -2 35 -3t54 -1l95 1l72 3l-11 -37h-9q-48 0 -48 -36q0 -11 2.5 -20.5t5.5 -20.5l58 -201l159 186q25 30 34 44t9 23q0 25 -52 25l11 37l103 -4l89 3l24 1l-10 -37q-31 0 -57 -15.5t-62 -54.5l-233 -256l-39 -134q-11 -40 -15 -59.5
t-4 -32.5q0 -41 50 -41h14l-10 -37l-12 1l-124 3l-120 -3l-18 -1l11 37h8q42 0 60.5 24t43.5 109l38 134l-56 199q-11 40 -25.5 69.5t-28.5 42.5zM383 778q0 -26 -15 -42t-41 -16q-49 0 -49 46q0 27 15 44t41 17q23 0 36 -13t13 -36zM546 778q0 -26 -15 -42t-40 -16
q-49 0 -49 46q0 27 15 44t40 17q23 0 36 -13t13 -36z" />
    <glyph glyph-name="florin" unicode="&#x192;" horiz-adv-x="554" 
d="M336 418l-97 -210q-51 -111 -98 -183t-86 -106t-73.5 -49t-64.5 -15t-47.5 14.5t-17.5 38.5q0 25 15 44t36 19q24 0 24 -26q0 -9 -10 -26.5t-10 -22.5q0 -16 22 -16q51 0 89 54.5t78 138.5l26 56l59 131l72 158h-85l17 33h28q24 0 42.5 9.5t22.5 14.5t12 19l39 63
q97 158 206 158q33 0 52 -14t19 -40q0 -24 -14 -42t-32 -18q-24 0 -24 26q0 13 10 29t10 21q0 16 -25 16q-34 0 -61.5 -29t-42.5 -53.5t-46 -90.5l-32 -67h89l-17 -35h-85z" />
    <glyph glyph-name="circumflex" unicode="&#x2c6;" horiz-adv-x="452" 
d="M355 640l27 -184l-28 -6l-55 99l-121 -99l-20 21l141 169h56z" />
    <glyph glyph-name="endash" unicode="&#x2013;" horiz-adv-x="533" 
d="M452 288l-19 -66h-455l19 66h455z" />
    <glyph glyph-name="emdash" unicode="&#x2014;" horiz-adv-x="745" 
d="M724 288l-19 -66h-747l19 66h747z" />
    <glyph glyph-name="quoteleft" unicode="&#x2018;" horiz-adv-x="158" 
d="M90 570q0 -19 14 -19l14 1q21 0 35 -15t14 -37q0 -28 -18 -46t-47 -18q-35 0 -58 26t-23 67q0 64 48.5 105.5t121.5 41.5h22l-1 -32q-16 0 -30 -0.5t-37 -7.5t-39 -25.5t-16 -40.5z" />
    <glyph glyph-name="quoteright" unicode="&#x2019;" horiz-adv-x="158" 
d="M144 542q0 19 -13 19l-15 -1q-20 0 -34.5 15.5t-14.5 37.5q0 28 18.5 45.5t47.5 17.5q36 0 58 -26t22 -67q0 -63 -48 -105t-122 -42l-22 1l2 32q28 0 37 1t30.5 7t37.5 25t16 40z" />
    <glyph glyph-name="quotesinglbase" unicode="&#x201a;" horiz-adv-x="158" 
d="M-17 -18q0 19 -13 19l-15 -1q-20 0 -34.5 15.5t-14.5 37.5q0 28 18.5 45.5t47.5 17.5q34 0 57 -26t23 -67q0 -63 -48 -105t-122 -42l-22 1l2 32q28 0 37 1t30.5 7t37.5 25t16 40z" />
    <glyph glyph-name="quotedblleft" unicode="&#x201c;" horiz-adv-x="350" 
d="M305 570q0 -19 13 -19l14 1q20 0 35 -15t15 -37q0 -28 -18 -46t-48 -18q-36 0 -58 26t-22 67q0 63 48 105t121 42h23l-2 -32q-16 0 -30 -0.5t-36.5 -7.5t-38.5 -25.5t-16 -40.5zM113 570q0 -19 14 -19l14 1q21 0 35 -15t14 -37q0 -28 -18 -46t-47 -18q-35 0 -58 26
t-23 67q0 64 48.5 105.5t121.5 41.5h22l-1 -32q-16 0 -30 -0.5t-37 -7.5t-39 -25.5t-16 -40.5z" />
    <glyph glyph-name="quotedblright" unicode="&#x201d;" horiz-adv-x="350" 
d="M144 542q0 19 -13 19l-15 -1q-20 0 -34.5 15.5t-14.5 37.5q0 28 18.5 45.5t47.5 17.5q36 0 58 -26t22 -67q0 -63 -48 -105t-122 -42l-22 1l2 32q28 0 37 1t30.5 7t37.5 25t16 40zM336 542q0 19 -14 19l-14 -1q-21 0 -35 15t-14 38q0 28 18.5 45.5t46.5 17.5q35 0 58 -26
t23 -67q0 -63 -48 -105t-122 -42l-22 1l1 32q28 0 37 1t31 7t38 25t16 40z" />
    <glyph glyph-name="quotedblbase" unicode="&#x201e;" horiz-adv-x="350" 
d="M-17 -18q0 19 -13 19l-15 -1q-20 0 -34.5 15.5t-14.5 37.5q0 28 18.5 45.5t47.5 17.5q34 0 57 -26t23 -67q0 -63 -48 -105t-122 -42l-22 1l2 32q28 0 37 1t30.5 7t37.5 25t16 40zM175 -18q0 19 -14 19l-14 -1q-21 0 -35 15t-14 38q0 28 18.5 45.5t46.5 17.5q35 0 58 -26
t23 -67q0 -63 -48 -105t-122 -42l-22 1l1 32q28 0 37 1t31 7t38 25t16 40z" />
    <glyph glyph-name="dagger" unicode="&#x2020;" horiz-adv-x="482" 
d="M130 150q10 47 10 96q0 28 -5 51q39 37 78 110q-37 -6 -52.5 -9.5t-41 -12t-34.5 -8.5q-23 0 -52.5 17.5t-29.5 30.5q0 19 29.5 33.5t37.5 17.5t13 3q12 0 48.5 -12t84.5 -20l5 -1q5 21 7 46l2 52v25q0 21 4 33t16 27t32 33t29 18q10 0 14.5 -6.5t10.5 -36t6 -47.5
q0 -20 -13 -40l-16 -24q-19 -28 -29 -46t-15 -34q37 3 75 15l42 13l14 2q11 0 20.5 -3.5t37 -18.5t27.5 -28q0 -9 -9.5 -18t-36.5 -21.5t-40 -12.5l-29 5l-44 11q-48 12 -69 14q-2 -5 -2.5 -12.5t-0.5 -11.5q0 -39 16 -83q-37 -52 -60 -98.5t-44 -111.5l-88 -277l-36 12
l63 218q4 16 12 49.5t13 60.5z" />
    <glyph glyph-name="daggerdbl" unicode="&#x2021;" horiz-adv-x="482" 
d="M204 385l9 21q-55 -8 -89 -18.5t-41 -10.5q-19 0 -50 18t-31 31q0 20 29 33.5t37.5 16.5t14.5 3q13 0 48.5 -12t90.5 -20l6 45l2 51v28q0 20 4 32t17 28l39 39q14 11 21 11q9 0 14 -7.5t11 -36.5t6 -47q0 -21 -14 -40l-16 -24q-18 -26 -29 -45t-16 -34q16 0 35.5 4
t40.5 10l42 14l14 2q13 0 26.5 -6.5t36.5 -18.5t23 -26q0 -17 -40 -36q-35 -15 -47 -15l-29 4l-44 12q-27 7 -43.5 11t-30.5 4q-3 -11 -5 -22v-21q-2 -19 -3 -29.5t-1 -32.5l-2 -60l2 -22q-14 -21 -17.5 -26.5t-17.5 -33.5l-55 -107l-9 -20q64 10 91.5 19t37.5 9q13 0 22 -3
t34 -17.5t25 -27.5q0 -20 -29 -34t-37 -17t-13 -3q-12 0 -37.5 8.5t-48 14.5t-51.5 10q-5 -20 -7 -46l-4 -53v-23q0 -22 -4 -34t-16.5 -28t-32 -33t-28.5 -17t-14 7.5t-11 37t-6 45.5q0 21 14 40l17 24l35 53q7 12 11 27q-38 -3 -76 -15l-43 -13l-14 -2q-11 0 -19.5 3
t-38 18.5t-29.5 28.5q0 19 37 35.5t50 16.5l30 -5l45 -12q17 -5 36.5 -9.5t36.5 -4.5l5 42l3 62l2 60l-1 23l34 59z" />
    <glyph glyph-name="bullet" unicode="&#x2022;" horiz-adv-x="667" 
d="M311 200q-57 0 -97.5 41.5t-40.5 98.5q0 58 40.5 98.5t97.5 40.5q58 0 97.5 -40.5t39.5 -98.5t-40 -99t-97 -41z" />
    <glyph glyph-name="ellipsis" unicode="&#x2026;" horiz-adv-x="505" 
d="M50 57q0 -30 -18 -50t-47 -20q-26 0 -42 16t-16 43q0 31 18 51t48 20q26 0 41.5 -16.5t15.5 -43.5zM219 57q0 -31 -18.5 -50.5t-47.5 -19.5q-26 0 -42 16t-16 43q0 31 18 51t48 20q26 0 42 -16.5t16 -43.5zM387 57q0 -30 -18 -50t-47 -20q-26 0 -42 16t-16 43q0 31 18 51
t47 20q26 0 42 -16.5t16 -43.5z" />
    <glyph glyph-name="perthousand" unicode="&#x2030;" horiz-adv-x="899" 
d="M543 647l-453 -647h-54l452 647h55zM193 657q39 0 63 -27t24 -71q0 -39 -12 -84t-44 -102t-103 -57q-38 0 -62 29t-24 76q0 72 40 154t118 82zM169 396q15 37 27 94.5t12 94.5q0 35 -21 35q-31 0 -57 -93t-26 -142q0 -33 22 -33q11 0 23 12t20 32zM453 331q39 0 63 -27
t24 -71q0 -39 -12 -84t-44 -102t-103 -57q-38 0 -62 29t-24 76q0 74 39.5 155t118.5 81zM429 71q15 37 27 94t12 94q0 36 -21 36q-31 0 -57 -93t-26 -143q0 -32 22 -32q11 0 23 12t20 32zM733 331q39 0 63 -27t24 -71q0 -39 -12 -84t-44 -102t-103 -57q-38 0 -62 29t-24 76
q0 74 39.5 155t118.5 81zM709 71q15 37 27 94t12 94q0 36 -21 36q-31 0 -57 -93t-26 -143q0 -32 22 -32q11 0 23 12t20 32z" />
    <glyph glyph-name="guilsinglleft" unicode="&#x2039;" horiz-adv-x="182" 
d="M119 116l-25 -13l-129 144l3 11l183 135l21 -24l-98 -120z" />
    <glyph glyph-name="guilsinglright" unicode="&#x203a;" horiz-adv-x="181" 
d="M-16 379l26 14l128 -145l-3 -10l-182 -135l-21 23l97 120z" />
    <glyph glyph-name="trademark" unicode="&#x2122;" horiz-adv-x="894" 
d="M77 305q25 0 34 7t17 36l85 297h-34q-44 0 -64 -15t-36 -63h-18l29 100h336l-29 -100h-18q6 27 6 38q0 22 -14 31t-47 9h-34l-89 -310l-2 -14q0 -16 32 -16h22l-6 -18h-197l5 18h22zM616 392l199 275h128l-5 -18h-16q-20 0 -30 -8.5t-17 -32.5l-75 -262q-5 -15 -5 -23
q0 -18 29 -18h13l-5 -18h-177l5 18h15q22 0 32.5 8t17.5 33l76 267l-236 -326h-12l-47 336l-79 -277l-3 -16q0 -22 41 -26l-5 -17h-124l5 17q28 0 41 9t19 33l82 289q0 14 -45 14l5 18h137z" />
    <glyph glyph-name="fraction" horiz-adv-x="173" 
d="M312 647l-454 -647h-54l452 647h56z" />
    <glyph glyph-name="fi" horiz-adv-x="527" 
d="M423 539q-40 0 -54 36q-18 8 -21 28l-3 19q-4 28 -19 28q-32 0 -70 -68t-64 -169l84 2l-11 -40l-84 2l-9 -27l-32 -103l-20 -69q-39 -138 -65.5 -201t-78.5 -128.5t-150 -65.5q-45 0 -72 14t-27 39q0 21 19.5 42.5t39.5 21.5q26 0 32.5 -33t11 -40t18.5 -7q30 0 51 32.5
t34 62t25 62.5l24 74l23 77l76 249l-67 -2l11 40l66 -2q21 70 39.5 110.5t65.5 101.5t154 61q59 0 85 -30q50 -5 50 -54q0 -28 -17.5 -45.5t-44.5 -17.5zM345 25q-48 -35 -93 -35q-18 0 -29.5 11.5t-11.5 29.5q0 10 3.5 24t9.5 30l88 226l3 17q0 10 -9 10q-6 0 -17.5 -9.5
t-25.5 -24.5l-19 -21l-5 -5l-22 22l5 7q55 61 97.5 88.5t79.5 27.5q40 0 40 -34q0 -19 -17 -63l-85 -208q-9 -22 -9 -34q0 -14 9 -14q10 0 23.5 10.5t49.5 46.5l6 6l21 -22l-11 -12q-28 -30 -46 -46t-35 -28z" />
    <glyph glyph-name="fl" horiz-adv-x="527" 
d="M507 680q-10 -17 -15.5 -30.5l-16.5 -40.5l-25 -72l-19 -57l-71 -219l-18 -62q-8 -27 -17 -62t-9 -47q0 -21 15 -21q19 0 53 37l26 27l20 -19q-58 -65 -101.5 -94.5t-80.5 -29.5q-45 0 -45 43q0 23 8 55l22 74l107 337l24 78q-13 8 -16 26l-3 19q-4 28 -19 28
q-32 0 -70 -68t-64 -169l84 2l-11 -40l-84 2l-61 -199q-39 -138 -65.5 -201t-78.5 -128.5t-150 -65.5q-45 0 -72 14t-27 39q0 21 19.5 42.5t39.5 21.5q26 0 32.5 -33t11 -40t18.5 -7q30 0 51 32.5t34 62t25 62.5l24 74l23 77l76 249l-67 -2l11 40l66 -2q21 70 39.5 110.5
t66 101.5t154.5 61q34 0 65 -14q33 5 47.5 9t30.5 12z" />
    <glyph glyph-name="dotlessi" horiz-adv-x="299" 
d="M117 25q-50 -35 -93 -35q-18 0 -29.5 11.5t-11.5 30.5q0 23 12 54l88 225l4 17q0 10 -9 10q-13 0 -43 -34l-24 -26l-23 23l6 6q104 116 177 116q40 0 40 -34q0 -19 -17 -62l-85 -209q-10 -24 -10 -34q0 -14 10 -14t22.5 10t23.5 21l26 26l7 7l21 -23l-11 -12
q-28 -30 -46 -46t-35 -28z" />
    <glyph glyph-name="tilde" horiz-adv-x="483" 
d="M253 627q16 0 47 -9l52 -17q12 -3 20 -4.5t13 -1.5q18 0 37 27l4 6l31 -17q-33 -51 -52.5 -68.5t-45.5 -17.5q-12 0 -20.5 2t-37.5 13q-54 18 -69 18q-20 0 -38 -25l-5 -7l-29 19l13 18q25 37 41.5 50.5t38.5 13.5z" />
    <glyph glyph-name="macron" 
d="M475 612l-14 -48h-333l14 48h333z" />
    <glyph glyph-name="breve" 
d="M302 594q58 0 93 17t62 59h27q-14 -36 -25 -54t-51.5 -53.5t-122.5 -35.5q-56 0 -90 26t-34 71q0 11 1 19.5t5 26.5h27q0 -40 26 -58t82 -18z" />
    <glyph glyph-name="dotaccent" horiz-adv-x="380" 
d="M402 575q0 -26 -15 -42t-41 -16q-49 0 -49 46q0 27 15 44t41 17q23 0 36 -13t13 -36z" />
    <glyph glyph-name="ring" horiz-adv-x="373" 
d="M270 463q-35 0 -59 24t-24 59q0 34 24 59t59 25t59.5 -24.5t24.5 -59.5t-24 -59t-60 -24zM270 498q20 0 34.5 13.5t14.5 34.5t-14 35t-35 14q-20 0 -34 -14t-14 -35q0 -20 14 -34t34 -14z" />
    <glyph glyph-name="hungarumlaut" 
d="M321 666h88l-176 -145h-28zM469 666h87l-175 -145h-28z" />
    <glyph glyph-name="ogonek" 
d="M311 -119q0 -24 20 -37t57 -13q14 0 38 6l3 -10q-45 -26 -95 -26q-83 0 -83 63q0 41 30 76.5t87 59.5h29q-35 -21 -60.5 -46.5t-25.5 -72.5z" />
    <glyph glyph-name="caron" horiz-adv-x="453" 
d="M235 642l55 -100l120 100l21 -21l-141 -170h-56l-27 186z" />
    <glyph glyph-name="Lslash" horiz-adv-x="542" 
d="M-4 293l99 61l61 214q10 36 10 48q0 17 -13.5 24t-46.5 7h-22l5 20h315l-6 -20h-42q-42 0 -58 -14t-31 -65l-41 -144l168 103l4 -28l-183 -113l-83 -290q-9 -32 -9 -42q0 -25 50 -25l64 1q87 0 137 38t102 143h21l-86 -211h-511l6 19h26q43 0 58.5 14t30.5 66l63 217
l-83 -51z" />
    <glyph glyph-name="lslash" horiz-adv-x="237" 
d="M262 458l-97 -60l-88 -308q-12 -42 -12 -51q0 -20 28 -20h13l-5 -19h-202l6 19h7q32 0 43 12t25 60l71 248l-68 -43l-5 28l84 52l58 202q6 23 8 31.5t2 15.5q0 22 -38 22h-7l5 20h152l-66 -231l81 50z" />
    <glyph glyph-name="Zcaron" horiz-adv-x="785" 
d="M548 621h-128q-123 0 -172 -25t-85 -109l-32 12q35 70 66 163l2 9q6 -1 10.5 -1t8.5 -1l113 -2l168 -1h85q51 0 82.5 1.5t59.5 3.5l8 -22l-63 -57l-515 -540h131l137 2q91 0 141.5 32.5t87.5 111.5l32 -13l-5 -10l-67 -165l-3 -10l-19 1l-150 5h-101l-209 -1l-140 -4
l-20 -1l-4 23l48 42q19 17 126 128.5t224 235t183 192.5zM401 919l55 -100l120 100l21 -21l-141 -170h-56l-27 186z" />
    <glyph glyph-name="zcaron" horiz-adv-x="424" 
d="M64 417l13 -1l106 -3h67l123 3l8 1l1 -24l-302 -342h46h55q72 0 104.5 18t67.5 76l29 -16q-19 -29 -40.5 -69.5t-28.5 -59.5l-37 2l-168 3l-159 -4l-14 -1v26l305 341l-36 2q-74 0 -107.5 -18t-50.5 -67l-33 12l26 58q9 21 15.5 36.5t9.5 26.5zM221 659l55 -100l120 100
l21 -21l-141 -170h-56l-27 186z" />
    <glyph glyph-name="minus" 
d="M461 321h-467v56h467v-56z" />
  </font>
</defs>
</svg>
